<svg xmlns="http://www.w3.org/2000/svg" viewBox="0 0 40 40"><path d="M34.912 13.842a10.883 10.883 0 0 0-.699-3.693 7.683 7.683 0 0 0-4.388-4.389 11.01 11.01 0 0 0-3.643-.7C24.578 4.99 24.07 4.97 20 4.97s-4.592 0-6.183.091a11.009 11.009 0 0 0-3.642.7 7.678 7.678 0 0 0-4.388 4.389 10.923 10.923 0 0 0-.699 3.641c-.071 1.605-.093 2.114-.093 6.184s0 4.59.093 6.183c.025 1.247.26 2.477.699 3.645a7.683 7.683 0 0 0 4.39 4.387c1.16.453 2.391.71 3.641.75 1.605.071 2.114.093 6.184.093s4.591 0 6.183-.093a10.98 10.98 0 0 0 3.643-.699 7.692 7.692 0 0 0 4.389-4.388c.438-1.167.673-2.397.698-3.645.072-1.603.093-2.112.093-6.183-.003-4.07-.003-4.587-.096-6.182zM19.99 27.67a7.703 7.703 0 0 1-7.705-7.705 7.706 7.706 0 1 1 7.705 7.705zm8.012-13.898a1.794 1.794 0 0 1-1.797-1.797 1.795 1.795 0 1 1 3.592 0c0 .994-.804 1.797-1.795 1.797z"/><path d="M19.99 24.97a5.005 5.005 0 1 0 0-10.01 5.005 5.005 0 0 0 0 10.01z"/></svg>