<svg xmlns="http://www.w3.org/2000/svg" viewBox="0 0 17 14"><path fill="#1B3580" d="M12.46 3.943a.853.853 0 0 0-1.198.125.86.86 0 0 0 .143 1.216 2.15 2.15 0 0 1 .786 1.662c0 .715-.34 1.341-.876 1.734a.75.75 0 0 0-.125 1.073l.072.071c.286.34.822.412 1.162.143a3.84 3.84 0 0 0 1.466-3.02 3.854 3.854 0 0 0-1.43-3.004z"/><path fill="#1B3580" d="M14.408 1.548c-.358-.286-.876-.215-1.18.125-.286.358-.25.894.107 1.18 1.18.983 1.949 2.449 1.949 4.093a5.301 5.301 0 0 1-1.949 4.094c-.357.286-.393.822-.107 1.18a.848.848 0 0 0 1.18.143A6.933 6.933 0 0 0 17 6.964a6.998 6.998 0 0 0-2.592-5.416zM7.472.243 3.128 3.586H1.001a1 1 0 0 0-1.001 1v4.72a1 1 0 0 0 1.001 1.001h2.127L7.49 13.65a1.15 1.15 0 0 0 1.86-.93V1.155c0-.948-1.11-1.502-1.878-.912z"/></svg>