<svg xmlns="http://www.w3.org/2000/svg" viewBox="0 0 40 40"><path d="M35.965 11.425c.233-.775 0-1.343-1.103-1.343h-3.655c-.93 0-1.355.492-1.589 1.032 0 0-1.858 4.531-4.491 7.47-.85.855-1.239 1.125-1.702 1.125-.232 0-.568-.27-.568-1.045v-7.239c0-.93-.269-1.343-1.044-1.343H16.07c-.58 0-.93.43-.93.84 0 .88 1.317 1.083 1.452 3.563v5.38c0 1.179-.212 1.394-.679 1.394-1.238 0-4.251-4.549-6.04-9.755-.348-1.012-.7-1.42-1.633-1.42H4.587c-1.045 0-1.254.491-1.254 1.031 0 .97 1.239 5.77 5.769 12.119 3.02 4.335 7.271 6.685 11.145 6.685 2.321 0 2.608-.522 2.608-1.422V25.22c0-1.043.222-1.253.957-1.253.54 0 1.47.273 3.638 2.362 2.477 2.476 2.887 3.588 4.278 3.588h3.654c1.043 0 1.565-.522 1.265-1.552-.329-1.025-1.512-2.516-3.082-4.281-.853-1.007-2.128-2.09-2.517-2.632-.541-.698-.385-1.007 0-1.627.002.002 4.454-6.268 4.917-8.4z"/></svg>