<svg xmlns="http://www.w3.org/2000/svg" xmlns:xlink="http://www.w3.org/1999/xlink" fill="none" viewBox="0 0 512 512"><path fill="#fff" d="M455.331 417.131a30.092 30.092 0 0 0-1.299 1.576c.433-.526.87-1.047 1.299-1.576z"/><path fill="url(#a)" d="M256 0C114.615 0 0 114.615 0 256s114.616 256 256 256c141.386 0 256-114.616 256-256C512 114.614 397.385 0 256 0z"/><path fill="#fff" d="M307.799 144.512c1.532-.101 2.888 1.532 3.541 4.419.653 2.914.653 5.551-1.155 6.102-2.486.804-5.876-1.506-6.454-4.067-.703-3.114 1.356-6.279 4.068-6.454zm63.558 310.383c-46.859 0-87.214-27.95-105.269-68.078a115.159 115.159 0 0 1-7.358-22.199c-.703-4.596-1.08-9.543-1.08-14.666 0-25.338 9.342-45.879 20.869-45.879 5.399 0 10.346 4.545 14.062 12.003-.025-.878-.025-1.758-.025-2.637 0-31.942 15.469-60.268 39.351-77.846l9.843-7.584h.025l49.555-38.141c1.997-1.537 3.37-3.755 3.78-6.241 1.401-8.496 2.32-17.546 2.69-26.936.227-5.81.234-11.506.036-17.033-.179-5-4.554-8.761-9.542-8.377-20.476 1.576-41.491 4.557-62.848 8.933l-.169-.056-26.2-10.433a34.321 34.321 0 0 0-20.588-1.504c-19.131 4.502-38.469 10.132-57.879 16.919-3.766-4.244-8.889-7.885-14.966-10.372-16.373-6.654-33.65-2.285-38.572 9.769-2.662 6.554-1.13 14.063 3.49 20.592a587.918 587.918 0 0 0-10.019 4.62C97.637 199.507 43.521 237.853 1.157 280.267a253.467 253.467 0 0 0 7.434 41.685C37.67 431.365 137.415 512 255.993 512c75.561 0 143.464-32.721 190.323-84.778-20.14 17.252-46.332 27.674-74.959 27.674"/><path fill="url(#b)" d="m391.329 189.869-49.554 38.14h-.025l-9.844 7.584c-23.882 17.578-39.35 45.905-39.35 77.847 0 .879 0 1.758.025 2.637-3.717-7.458-8.664-12.004-14.063-12.004-11.526 0-20.868 20.542-20.868 45.88 0 5.123.377 10.07 1.08 14.665a115.113 115.113 0 0 0 7.358 22.199c18.055 40.129 58.41 68.078 105.269 68.078 28.566 0 54.705-10.379 74.827-27.565 18.617-20.657 33.93-44.35 45.078-70.263.051-.128.089-.26.145-.386-33.036 49.287-125.724 50.466-154.906-18.75-9.962-23.628-9.827-50.89.98-74.121 19.09-41.032 53.979-68.24 56.347-76.732a10.175 10.175 0 0 1-2.499 2.791z"/><path fill="url(#c)" d="M349.172 201.861c-65.295 30.538-78.461 65.426-78.461 65.426-5.046-6.802-7.241-15.579-5.924-21.917 0 0-113.469 100.438-129.283 224.76-.254 1.995-.49 6.064-.712 11.381 36.082 19.435 77.345 30.49 121.201 30.49 75.561 0 143.465-32.721 190.323-84.778-20.14 17.252-46.331 27.674-74.959 27.674-46.859 0-87.213-27.95-105.269-68.079a115.127 115.127 0 0 1-7.358-22.198c-.703-4.596-1.08-9.543-1.08-14.666 0-25.338 9.342-45.88 20.868-45.88 5.399 0 10.346 4.546 14.063 12.004-.025-.879-.025-1.758-.025-2.637 0-31.942 15.468-60.269 39.35-77.847l9.844-7.583h.025l49.554-38.14c1.997-1.538 3.371-3.756 3.781-6.242.598-3.627 1.11-7.373 1.527-11.185-1.959 6.257-8.975 11.414-47.464 29.416l-.001.001z"/><path fill="url(#d)" d="M0 0H.117V.117H0z"/><path fill="#fff" d="M310.193 155.03c-2.486.804-5.876-1.507-6.454-4.068-.703-3.114 1.356-6.278 4.068-6.454 1.532-.101 2.888 1.532 3.541 4.42.653 2.913.653 5.549-1.155 6.102"/><path fill="#377FEB" d="M310.193 155.03c-2.486.804-5.876-1.507-6.454-4.068-.703-3.114 1.356-6.278 4.068-6.454 1.532-.101 2.888 1.532 3.541 4.42.653 2.913.653 5.549-1.155 6.102"/><defs><pattern id="d" width="1" height="1" patternContentUnits="objectBoundingBox"><use transform="scale(.00052 .00038)" xlink:href="#e"/></pattern><linearGradient id="a" x1="195.06" x2="361.65" y1="390.071" y2="23.573" gradientUnits="userSpaceOnUse"><stop stop-color="#377FEB"/><stop offset="1" stop-color="#377FEB"/></linearGradient><linearGradient id="b" x1="405.923" x2="348.091" y1="214.459" y2="459.947" gradientUnits="userSpaceOnUse"><stop stop-color="#377FEB"/><stop offset="1" stop-color="#377FEB"/></linearGradient><linearGradient id="c" x1="220.226" x2="304.286" y1="126.182" y2="497.238" gradientUnits="userSpaceOnUse"><stop stop-color="#377FEB"/><stop offset="1" stop-color="#fff"/></linearGradient></defs></svg>