<svg width="689" height="412" viewBox="0 0 689 412" fill="none" xmlns="http://www.w3.org/2000/svg">
<path d="M224.754 115.713C224.754 115.713 210.736 137.053 206.844 141.186C204.149 144.05 160.201 142.639 160.201 142.639L157.525 160.126C157.525 160.126 204.354 170.211 215.119 165.721C225.582 161.354 251.388 127.747 251.388 127.747L224.754 115.713Z" fill="#EFBAB2"/>
<path d="M291.373 78.8527C306.666 76.7279 408.855 69.1582 408.855 69.1582C408.855 69.1582 419.563 88.8096 407.004 92.7691C396.135 96.1954 300.09 103.084 300.09 103.084C300.09 103.084 280.78 80.3263 291.373 78.8527Z" fill="#EFBAB2"/>
<path d="M361.665 73.2061L359.549 81.2247" stroke="#0C0A0B" stroke-width="0.00149318" stroke-miterlimit="10"/>
<path d="M304.573 380.857L281.346 234.38L307.352 230.415L329.769 377.257C329.769 377.257 315.796 385.611 304.573 380.857Z" fill="#EFBAB2"/>
<path d="M304.573 380.933L304.57 409.918L317.922 409.92L318.948 396.1C318.948 396.1 324.556 406.811 329.541 409.922C334.526 413.034 363.741 412.003 366.476 409.93C369.207 407.857 343.654 394.724 340.393 391.267C337.132 387.811 329.149 370.786 329.149 370.786C329.149 370.786 320.142 369.842 317.022 378.307L304.573 380.933Z" fill="#0C0C0C"/>
<path d="M270.24 379.355L274.023 234.321L247.226 230.415L244.31 375.809C244.31 375.809 259.543 384.069 270.24 379.355Z" fill="#EFBAB2"/>
<path d="M270.243 379.467L274.138 408.164L260.653 408.176L257.762 394.494C257.762 394.494 253.536 405.101 248.921 408.185C244.303 411.27 214.659 410.27 211.619 408.22C208.579 406.172 232.626 393.148 235.455 389.726C238.285 386.302 244.061 369.438 244.061 369.438C244.061 369.438 253.028 368.496 257.316 376.876L270.243 379.467Z" fill="#0C0C0C"/>
<path d="M316.986 85.7121C314.855 78.2228 312.09 70.7418 307.225 64.6596C303.936 60.5429 299.79 57.2054 296.076 53.4627C296.018 53.4047 295.965 53.3427 295.907 53.2851C296.057 53.0247 296.229 52.7787 296.448 52.5679C298.608 50.462 301.261 48.9309 303.559 46.9757C309.805 41.6647 313.126 33.1065 312.098 24.9703C311.67 21.5852 310.232 17.9417 307.126 16.5346C305.376 15.743 303.371 15.7906 301.456 15.9558C296.663 16.367 291.926 17.4189 287.409 19.0745C285.084 19.9257 282.742 20.9509 280.267 20.9449C276.867 20.9345 273.596 18.9669 270.231 19.4589C267.354 19.8825 264.996 22.0772 263.56 24.6068C262.124 27.1343 261.444 30.009 260.634 32.8009C258.426 40.4203 255.186 50.0032 250.96 56.7134C250.96 56.7134 250.977 56.7278 250.985 56.7362C249.358 58.9701 247.908 61.0741 246.736 62.7664C242.627 68.7038 238.463 74.9884 237.581 82.1495C236.934 87.3901 238.139 92.7115 240.048 97.6322C244.549 109.213 253.215 119.247 264.323 124.814C275.433 130.382 288.924 131.272 300.447 126.622C308.503 123.374 315.721 117.133 318.339 108.852C320.708 101.375 319.133 93.2531 316.986 85.7121Z" fill="#755227"/>
<path d="M288.341 69.921C288.341 69.921 293.9 86.1085 294.675 90.6016C295.448 95.0943 295.626 100.561 295.626 100.561C295.626 100.561 260.804 101.259 261.504 100.561C262.203 99.8597 263.982 77.6748 265.666 74.8789C267.353 72.0825 269.169 69.1582 269.169 69.1582L288.341 69.921Z" fill="#EFBAB2"/>
<path d="M279.437 88.0498L280.572 97.5127" stroke="#0C0A0B" stroke-width="0.00149318" stroke-miterlimit="10"/>
<path d="M270.119 44.8691L269.181 72.7207C268.929 77.8601 272.688 82.2991 277.757 82.8531C283.612 83.492 288.675 78.7305 288.448 72.7911L287.644 46.7807L270.119 44.8691Z" fill="#EFBAB2"/>
<path d="M288.451 72.6235L288.133 62.3155C288.133 62.3155 280.377 62.0218 274.134 54.9893C274.134 54.9893 274.742 71.5676 288.451 72.6235Z" fill="#0C0A0B"/>
<path d="M301.057 43.6243C301.111 44.7591 301.094 45.8874 300.989 47.0138C300.818 48.8966 300.412 50.7565 299.762 52.4821C298.065 57.0283 294.715 60.6906 289.64 61.7857C284.064 62.9925 278.287 60.3042 274.731 55.8071C268.283 47.671 265.293 31.3199 274.822 24.5249C275.884 23.7645 277.004 23.2125 278.167 22.8405C283.638 21.1006 289.844 23.4897 294.089 27.5915C298.336 31.6958 300.743 37.6437 301.057 43.6243Z" fill="#EFBAB2"/>
<path d="M272.643 50.8351C270.969 52.071 268.341 52.2818 266.487 51.3082C264.631 50.3351 263.298 48.2539 263.108 46.0428C262.938 44.0589 263.749 41.949 265.334 40.9838C266.917 40.0206 269.44 40.465 270.422 42.1697L272.643 50.8351Z" fill="#EFBAB2"/>
<path d="M288.909 43.9003C288.988 44.5575 288.518 45.1526 287.859 45.233C287.204 45.3114 286.607 44.8402 286.53 44.1855C286.452 43.5258 286.919 42.9306 287.576 42.8523C288.233 42.7739 288.83 43.2451 288.909 43.9003Z" fill="#0C0A0B"/>
<path d="M296.142 43.2284C296.219 43.8836 295.752 44.4808 295.092 44.5592C294.437 44.638 293.84 44.1688 293.762 43.5117C293.685 42.8545 294.152 42.2573 294.809 42.1784C295.466 42.1001 296.064 42.5713 296.142 43.2284Z" fill="#0C0A0B"/>
<path d="M284.966 41.0334C284.775 41.0557 284.581 40.9734 284.474 40.8018C284.321 40.5622 284.389 40.2438 284.626 40.093C285.586 39.477 286.737 39.1363 287.875 39.1338C288.158 39.1318 288.388 39.3615 288.39 39.6447C288.39 39.9299 288.16 40.159 287.88 40.159C286.939 40.161 285.976 40.4442 285.18 40.9546C285.114 40.9982 285.04 41.023 284.966 41.0334Z" fill="#0C0A0B"/>
<path d="M296.251 39.6623C296.191 39.6708 296.127 39.6663 296.065 39.6519C295.174 39.4287 294.236 39.4307 293.349 39.6559C293.087 39.7223 292.796 39.5592 292.725 39.2839C292.657 39.0111 292.822 38.7304 293.097 38.6619C294.147 38.3936 295.261 38.3911 296.315 38.656C296.59 38.7239 296.755 39.0051 296.687 39.2779C296.635 39.4907 296.456 39.6375 296.251 39.6623Z" fill="#0C0A0B"/>
<path d="M291.919 47.257C292.706 46.9058 293.614 46.763 294.544 47.0338C295.484 47.251 296.399 48.2157 296.515 49.2905C296.592 49.8277 296.474 50.4457 296.183 50.9273C295.875 51.4089 295.459 51.7397 295.028 51.9356C294.176 52.3572 293.273 52.4009 292.424 52.2397C293.168 51.8141 293.854 51.3757 294.368 50.9213C294.895 50.4353 295.06 50.0117 294.978 49.5053C294.916 48.9414 294.633 48.5237 294.068 48.1413C293.494 47.7902 292.74 47.4966 291.919 47.257Z" fill="#0C0A0B"/>
<path d="M269.499 48.3582C268.705 48.513 267.821 48.383 267.077 47.9138C266.325 47.4714 265.695 46.6738 265.529 45.6759C265.376 44.6775 265.839 43.6111 266.606 43.078C267.346 42.516 268.268 42.3999 269.051 42.5944C267.629 43.4068 266.868 44.4543 267.063 45.4527C267.208 46.4839 268.158 47.5007 269.499 48.3582Z" fill="#0C0A0B"/>
<path d="M287.432 50.3364C287.794 51.93 286.211 53.6495 283.898 54.1703C281.586 54.6931 279.418 53.8231 279.056 52.2295C278.694 50.634 280.28 48.9169 282.592 48.3941C284.903 47.8713 287.071 48.7413 287.432 50.3364Z" fill="#F2727C"/>
<path d="M300.989 47.2295C300.817 49.1118 300.412 50.9742 299.761 52.6977C298.238 52.0157 297.3 50.7674 297.502 49.5209C297.719 48.2026 299.178 47.3039 300.989 47.2295Z" fill="#F2727C"/>
<path d="M294.458 54.9893C294.375 55.7432 294.016 56.4956 293.381 57.0228C292.761 57.5783 291.846 57.8536 290.986 57.7812C290.11 57.7068 289.395 57.2852 288.787 56.818C288.202 56.32 287.77 55.6856 287.471 54.9912C288.194 55.2556 288.829 55.5244 289.419 55.7868C290.031 55.9748 290.589 56.2292 291.131 56.2372C292.177 56.3676 293.231 55.9024 294.458 54.9893Z" fill="#0C0A0B"/>
<path d="M268.776 40.7036C268.776 40.7036 277.483 42.2287 278.735 38.5832C279.99 34.9358 277.355 29.6163 277.355 29.6163C277.355 29.6163 293.232 36.8101 300.732 32.4638C308.234 28.116 284.517 17.7434 274.137 22.4553C263.755 27.1691 267.127 39.3148 268.776 40.7036Z" fill="#755227"/>
<path d="M334.453 258.302L217.553 270.792C217.555 270.765 217.556 270.737 217.558 270.708C217.588 270.264 217.631 269.608 217.69 268.76C217.806 267.064 217.981 264.601 218.212 261.534C218.675 255.4 219.366 246.851 220.277 237.188C222.101 217.858 224.806 194.091 228.335 176.299C230.833 163.705 235.479 143.344 239.503 126.125C241.514 117.517 243.37 109.696 244.722 104.027C245.398 101.193 245.949 98.8969 246.33 97.3093C246.521 96.5155 246.669 95.8988 246.77 95.4806L246.834 95.2174L308.028 93.9594C308.025 94.008 308.021 94.0597 308.018 94.1145C307.988 94.5732 307.944 95.2486 307.891 96.1161C307.784 97.8511 307.639 100.355 307.485 103.43C307.176 109.581 306.83 118.019 306.681 127.172C306.531 136.324 306.579 146.194 307.058 155.206C307.536 164.209 308.447 172.389 310.035 178.143L310.517 178.01L310.035 178.143C314.515 194.368 320.667 214.555 325.698 230.683C328.214 238.747 330.45 245.798 332.057 250.833C332.861 253.351 333.507 255.364 333.952 256.748C334.051 257.055 334.14 257.331 334.219 257.575C334.311 257.863 334.39 258.106 334.453 258.302Z" fill="#FFFAFF" stroke="#1B3580"/>
<path d="M288.448 72.8691C288.448 72.8691 293.15 83.5041 292.398 90.8714C291.988 94.8909 278.667 118.103 278.667 118.103L278.669 122.065C278.669 122.065 297.719 151.136 307.382 151.425L308.118 111.145L349.975 104.17L345.034 73.1791L288.448 72.8691Z" fill="#40378A"/>
<path d="M269.182 72.5313C269.182 72.5313 264.329 83.2381 265.084 90.6035C265.493 94.6235 278.668 117.836 278.668 117.836L278.67 121.797C278.67 121.797 250.88 150.562 233.622 149.175L237.117 133.907L215.118 120.652C215.118 120.652 233.719 88.6052 239.191 78.8859C242.814 72.4505 269.182 72.5313 269.182 72.5313Z" fill="#40378A"/>
<path d="M288.272 68.1465C288.272 68.1465 291.056 68.1465 292.403 68.8037C293.742 69.4609 300.163 81.4865 300.097 82.3773C300.031 83.2656 294.221 85.1732 294.221 85.1732L288.454 72.7239L288.272 68.1465Z" fill="#40378A"/>
<path d="M294.741 72.8691C294.741 72.8691 300.069 83.4609 300.497 84.8348C300.923 86.2092 292.404 90.8714 292.404 90.8714" stroke="#0C0A0B" stroke-width="0.00149318" stroke-miterlimit="10"/>
<path d="M269.337 68.1465C269.337 68.1465 266.086 68.6464 264.558 69.2833C263.033 69.9177 258.584 81.2777 258.584 82.844C258.584 84.4108 264.432 83.774 264.432 83.774L269.186 72.654L269.337 68.1465Z" fill="#40378A"/>
<path d="M262.482 73.2061C262.482 73.2061 256.299 85.8537 255.916 87.3788C255.536 88.906 260.494 89.6271 265.09 90.8983" stroke="#0C0A0B" stroke-width="0.00149318" stroke-miterlimit="10"/>
<path d="M250.217 176.438L226.968 180.467" stroke="#0C0A0B" stroke-width="0.00149318" stroke-miterlimit="10"/>
<path d="M278.674 119.425C278.674 119.425 285.889 120.002 288.348 121.967C291.221 124.263 292.808 130.099 292.564 132.901C292.564 132.901 276.471 126.697 278.674 119.425V119.425Z" stroke="#0C0A0B" stroke-width="0.00149318" stroke-miterlimit="10"/>
<path d="M286.335 123.932C284.084 122.165 281.555 120.752 278.868 119.762" stroke="#0C0A0B" stroke-width="0.00149318" stroke-miterlimit="10"/>
<path d="M278.668 119.425C278.668 119.425 271.451 120.002 268.992 121.967C266.119 124.263 264.532 130.099 264.776 132.901C264.776 132.901 280.868 126.697 278.668 119.425V119.425Z" stroke="#0C0A0B" stroke-width="0.00149318" stroke-miterlimit="10"/>
<path d="M270.993 123.932C273.243 122.165 275.772 120.752 278.459 119.762" stroke="#0C0A0B" stroke-width="0.00149318" stroke-miterlimit="10"/>
<path d="M308.102 101.207C308.102 101.207 308.102 106.209 308.102 111.212" stroke="#0C0A0B" stroke-width="0.00149318" stroke-miterlimit="10"/>
<path d="M244.714 101.882C244.714 101.882 239.54 123.56 237.12 134.131" stroke="#0C0A0B" stroke-width="0.00149318" stroke-miterlimit="10"/>
<path d="M329.77 244.921L218.007 257.662" stroke="#0C0A0B" stroke-width="0.00149318" stroke-miterlimit="10"/>
<path d="M314.508 295.525C311.65 296.889 308.531 297.704 305.371 297.908" stroke="#0C0A0B" stroke-width="0.00149318" stroke-miterlimit="10"/>
<path d="M258.77 298.74C255.999 298.116 253.226 297.494 250.456 296.874" stroke="#0C0A0B" stroke-width="0.00149318" stroke-miterlimit="10"/>
<path d="M239.041 125.853L219.272 113.689" stroke="#0C0A0B" stroke-width="0.00149318" stroke-miterlimit="10"/>
<path d="M200.243 100.87L236.361 140.336C236.361 140.336 231.697 160.674 230.18 167.844C230.18 167.844 197.685 138.478 184.787 120.368L200.243 100.87Z" fill="#EFBAB2"/>
<path d="M215.519 138.744C217.101 137.028 218.682 135.311 220.268 133.594" stroke="#0C0A0B" stroke-width="0.00149318" stroke-miterlimit="10"/>
<path d="M97.9265 360.318L91.6503 397.852H44.2361C44.2361 397.852 44.982 389.152 47.7159 386.915C50.4483 384.677 66.857 385.177 68.5949 383.685C73.8152 379.201 78.6634 354.899 78.6634 354.899L97.9265 360.318Z" fill="#EFBAB2"/>
<path d="M40.7583 412.001H60.3949C64.1232 412.001 68.0995 404.544 69.5914 403.052C71.0833 401.56 82.7663 401.56 82.7663 401.56L82.5183 412.001H92.6463L91.6523 398.082H44.2381C44.2381 398.082 40.5103 403.612 40.7583 412.001Z" fill="#0C0C0C"/>
<path d="M91.6565 398.013L94.8993 378.613L73.7371 373.792L71.0875 380.294L88.7367 384.838L86.4983 398.013H91.6565Z" fill="#0C0C0C"/>
<path d="M65.6101 397.889C65.6101 397.889 65.1141 389.854 60.3919 384.925L51.4785 385.778C51.4785 385.778 54.1777 392.421 53.4297 397.889H65.6101Z" fill="#0C0C0C"/>
<path d="M182.742 360.318L189.018 397.852H236.433C236.433 397.852 235.687 389.152 232.954 386.915C230.22 384.677 213.811 385.177 212.073 383.685C206.853 379.201 202.005 354.899 202.005 354.899L182.742 360.318Z" fill="#EFBAB2"/>
<path d="M239.911 412.001H220.275C216.546 412.001 212.569 404.544 211.077 403.052C209.585 401.56 197.903 401.56 197.903 401.56L198.153 412.001H188.024L189.016 398.082H236.43C236.43 398.082 240.159 403.612 239.911 412.001Z" fill="#0C0C0C"/>
<path d="M189.021 398.013L185.779 378.613L206.941 373.792L209.59 380.294L191.943 384.838L194.179 398.013H189.021Z" fill="#0C0C0C"/>
<path d="M215.055 397.889C215.055 397.889 215.553 389.854 220.275 384.925L229.186 385.778C229.186 385.778 226.487 392.421 227.235 397.889H215.055Z" fill="#0C0C0C"/>
<path d="M108.851 114.701L97.9601 161.679H168.673L160.907 114.701H108.851Z" fill="#EFBAB2"/>
<path d="M145.924 12.5896C145.924 12.5896 124.754 6.99539 121.237 35.4734C117.721 63.9533 123.324 58.6751 95.1974 61.9734C67.0706 65.2717 39.5995 75.551 40.7834 109.268L84.7257 137.262C84.7257 137.262 91.1532 110.737 118.736 112.831C146.319 114.924 159.547 88.2645 160.835 61.2706C163.077 14.2556 145.924 12.5896 145.924 12.5896Z" fill="#000302"/>
<path d="M102.163 80.443C91.2224 91.3403 60.7981 139.042 60.7981 139.042L27.5795 122.023L15.9611 129.976C15.9611 129.976 60.0933 173.653 70.8393 166.044C80.1391 159.455 121.965 96.2545 121.965 96.2545C121.965 96.2545 109.741 72.8956 102.163 80.443Z" fill="#EFBAB2"/>
<path d="M60.7981 138.991L65.8591 143.734" stroke="#0C0A0B" stroke-width="0.00149318" stroke-miterlimit="10"/>
<path d="M1.46524 110.91C2.23204 108.598 8.59305 111.97 8.59305 111.97C8.59305 111.97 3.57963 108.963 4.56961 107.083C5.55712 105.202 10.8066 109.205 10.8066 109.205C10.8066 109.205 5.61713 105.138 7.57628 103.665C8.86187 102.698 16.6345 109.331 16.6345 109.331C17.3144 105.142 22.6131 110.35 24.537 113.105C26.4609 115.858 27.5769 122.093 27.5769 122.093L15.9584 130.045C15.9584 130.045 0.0313498 119.47 0.000102752 116.778C-0.0306483 114.082 6.85115 115.376 6.85115 115.376C6.85115 115.376 0.76888 113.004 1.46524 110.91Z" fill="#EFBAB2"/>
<path d="M16.6357 109.304C16.6357 109.304 18.5989 112.126 20.0888 113.848C20.0888 113.848 15.7613 115.096 17.3634 118.955" stroke="#0C0A0B" stroke-width="0.00149318" stroke-miterlimit="10" stroke-linecap="round"/>
<path d="M11.7486 108.967C11.0086 109.035 10.4094 109.587 9.93228 110.155C9.00429 111.261 6.79071 114.084 7.28074 116.326" stroke="#0C0A0B" stroke-width="0.00149318" stroke-miterlimit="10" stroke-linecap="round"/>
<path d="M147.031 17.6395C147.031 17.6395 157.982 11.2244 167.751 15.046C177.522 18.871 174.312 34.5878 165.256 51.2837C159.073 62.6873 193.238 84.1491 135.933 102.755C135.933 102.755 116.914 40.4196 147.031 17.6395Z" fill="#000302"/>
<path d="M133.111 72.4043L133.114 72.4043L155.337 72.8011L155.354 72.8014L155.372 72.8005L155.346 72.3012C155.372 72.8005 155.372 72.8005 155.372 72.8005L155.372 72.8005L155.375 72.8004L155.384 72.7999L155.42 72.7981L155.564 72.7911C155.691 72.785 155.878 72.7764 156.118 72.7661C156.598 72.7455 157.29 72.718 158.137 72.6909C159.832 72.6367 162.148 72.5837 164.63 72.5888C167.114 72.5938 169.76 72.657 172.117 72.8341C174.488 73.0122 176.521 73.3027 177.806 73.7455C178.387 73.9459 179.351 74.5862 180.639 75.632C181.906 76.6614 183.431 78.0368 185.117 79.6429C188.489 82.8542 192.484 86.9659 196.314 91.0245C200.144 95.082 203.806 99.082 206.51 102.068C207.862 103.561 208.975 104.8 209.75 105.666C210.137 106.099 210.439 106.438 210.645 106.669L210.705 106.736L192.374 134.384L169.047 107.058L167.921 105.738L168.172 107.455L174.443 150.285H92.9056L98.4294 133.328L98.5534 132.948L98.209 132.743L71.1964 116.72C71.2047 116.707 71.2131 116.694 71.2217 116.68C71.42 116.37 71.7121 115.916 72.0875 115.336C72.8381 114.178 73.9214 112.52 75.251 110.526C77.9106 106.538 81.5547 101.206 85.4943 95.8276C89.4356 90.4468 93.6652 85.03 97.4964 80.8671C99.4126 78.785 101.22 77.0271 102.834 75.746C104.463 74.4524 105.837 73.6941 106.891 73.5244C111.603 72.766 118.15 72.4845 123.538 72.3941C126.228 72.3489 128.623 72.3515 130.344 72.3653C131.205 72.3723 131.897 72.382 132.374 72.39C132.612 72.394 132.797 72.3976 132.922 72.4001L133.064 72.4032L133.099 72.404L133.108 72.4042L133.111 72.4042L133.111 72.4042C133.111 72.4042 133.111 72.4042 133.123 71.9044L133.111 72.4043Z" fill="#FFFAFF" stroke="#1B3580"/>
<path d="M168.671 107.422L162.016 102.557" stroke="#0C0A0B" stroke-width="0.00149318" stroke-miterlimit="10"/>
<path d="M97.9601 133.358L113.941 98.5088" stroke="#1B3580" stroke-miterlimit="10"/>
<path d="M165.192 45.2171C165.122 46.3762 164.959 47.5234 164.7 48.635C164.583 49.1746 164.431 49.7137 164.268 50.2409C162.755 55.1616 159.405 59.2595 154.09 60.6522C148.361 62.163 142.226 59.623 138.324 55.112C131.25 46.961 127.386 30.1059 136.979 22.6002C138.055 21.757 139.192 21.1246 140.386 20.6926C145.985 18.6298 152.545 20.8186 157.157 24.8961C161.761 28.9612 164.537 35.039 165.134 41.2324C165.262 42.5571 165.287 43.8923 165.192 45.2171Z" fill="#EFBAB2"/>
<path d="M159.011 41.844C159.101 42.4992 159.706 42.958 160.361 42.8687C161.016 42.7799 161.475 42.1743 161.386 41.5216C161.295 40.8644 160.692 40.4056 160.037 40.4944C159.381 40.5852 158.923 41.1888 159.011 41.844Z" fill="#0C0A0B"/>
<path d="M151.79 42.8533C151.879 43.5084 152.483 43.9692 153.137 43.8785C153.795 43.7897 154.253 43.1861 154.165 42.5309C154.074 41.8737 153.47 41.4174 152.815 41.5062C152.16 41.5949 151.702 42.1986 151.79 42.8533Z" fill="#0C0A0B"/>
<path d="M134.242 44.5312L132.907 73.5008C132.574 78.845 136.463 83.5216 141.779 84.1749C147.918 84.9253 153.294 80.0438 153.133 73.8603L152.618 46.7815L134.242 44.5312Z" fill="#EFBAB2"/>
<path d="M152.999 72.0731L152.96 61.1138C152.96 61.1138 144.785 62.7381 138.32 55.3271C138.32 55.3271 136.845 71.1183 152.999 72.0731Z" fill="#0C0A0B"/>
<path d="M135.927 49.9873C134.245 51.3473 131.519 51.688 129.548 50.7605C127.574 49.8345 126.09 47.7326 125.793 45.4431C125.526 43.3887 126.27 41.1588 127.874 40.082C129.475 39.0077 132.12 39.3549 133.216 41.0804L135.927 49.9873Z" fill="#EFBAB2"/>
<path d="M131.538 39.8867C131.538 39.8867 143.902 43.7534 145.194 36.5329C146.486 29.3118 150.605 28.9071 157.157 25.1103C157.157 25.1103 157.505 15.575 142.241 16.6086C134.894 17.1086 125.739 24.6391 131.538 39.8867Z" fill="#000302"/>
<path d="M147.551 38.0603C147.412 38.0683 147.272 38.0187 147.166 37.9135C146.974 37.7191 146.978 37.4051 147.17 37.2127C148.14 36.2579 149.613 35.8735 150.922 36.2272C151.186 36.2996 151.343 36.5724 151.271 36.8367C151.198 37.1011 150.926 37.2583 150.661 37.1859C149.7 36.9235 148.578 37.2191 147.869 37.9195C147.78 38.0063 147.666 38.0539 147.551 38.0603Z" fill="#000302"/>
<path d="M158.031 36.5774C157.851 36.5874 157.67 36.4986 157.57 36.3334C157.434 36.0978 157.512 35.7918 157.748 35.6534C158.604 35.1515 159.654 34.9695 160.629 35.1574C160.898 35.207 161.075 35.4674 161.022 35.7362C160.97 36.0046 160.716 36.1846 160.443 36.131C159.701 35.9882 158.901 36.1266 158.25 36.509C158.18 36.5502 158.106 36.571 158.031 36.5774Z" fill="#000302"/>
<path d="M151.73 49.5958C151.984 50.8561 150.632 52.1933 148.712 52.5776C146.79 52.964 145.032 52.2533 144.778 50.9905C144.526 49.7277 145.875 48.395 147.795 48.0086C149.715 47.6243 151.477 48.335 151.73 49.5958Z" fill="#DB424E"/>
<path d="M157.743 44.5173C157.805 45.1765 158.175 45.5569 158.659 45.8832C159.138 46.2344 159.781 46.4888 160.426 46.772L161.325 47.1688L160.822 47.8692C160.599 48.1836 160.37 48.3736 160.112 48.5883C159.864 48.7971 159.572 48.9544 159.279 49.0967C158.686 49.3636 157.991 49.4399 157.405 49.2539C157.956 48.9707 158.363 48.63 158.71 48.2516C159.054 47.892 159.376 47.4436 159.587 47.0776L159.981 48.1752C159.188 47.9748 158.38 47.6479 157.698 46.9888C157.367 46.6644 157.078 46.2245 156.971 45.722C156.881 45.2117 156.95 44.6993 157.27 44.2941C157.359 44.1805 157.524 44.1597 157.636 44.2485C157.696 44.2961 157.727 44.3601 157.735 44.4285L157.743 44.5173Z" fill="#0C0A0B"/>
<path d="M159.895 52.145C159.655 52.8479 159.154 53.4842 158.43 53.8463C157.721 54.2406 156.789 54.2986 155.988 54.0402C155.171 53.7739 154.586 53.2159 154.113 52.6331C153.671 52.0275 153.409 51.3291 153.286 50.6035C153.917 51.0087 154.464 51.3991 154.966 51.7731C155.506 52.083 155.975 52.4451 156.477 52.5691C157.432 52.9203 158.517 52.7258 159.895 52.145Z" fill="#0C0A0B"/>
<path d="M165.197 45.2061C165.126 46.3652 164.963 47.5124 164.705 48.6239C164.587 49.1635 164.436 49.7027 164.273 50.2299C162.795 49.7275 161.799 48.6839 161.872 47.5471C161.964 46.2928 163.382 45.3444 165.197 45.2061Z" fill="#DB424E"/>
<path d="M133.087 47.9456C132.356 48.2432 131.484 48.274 130.688 47.9555C129.886 47.6664 129.142 47.0072 128.809 46.0772C128.485 45.1433 128.747 44.0333 129.394 43.3925C130.008 42.7229 130.876 42.4565 131.661 42.5146C130.448 43.5581 129.923 44.68 130.278 45.5812C130.586 46.5296 131.657 47.342 133.087 47.9456Z" fill="#0C0A0B"/>
<path d="M168.672 161.594H97.9592C97.9592 161.594 70.5025 238.484 58.2576 355.642L113.942 363.357L136.456 228.608L160.416 365.254L218.719 351.658C218.874 351.559 195.389 197.264 168.672 161.594Z" fill="#FFC861"/>
<path d="M136.451 228.583C136.451 228.583 145.682 208.767 148.642 189.932" stroke="#0C0A0B" stroke-width="0.00149318" stroke-miterlimit="10"/>
<path d="M60.4818 340.056L116.311 349.211" stroke="#0C0A0B" stroke-width="0.00149318" stroke-miterlimit="10"/>
<path d="M157.335 346.818L214.837 332.972" stroke="#0C0A0B" stroke-width="0.00149318" stroke-miterlimit="10"/>
<path d="M95.3878 169.354H173.714" stroke="#0C0A0B" stroke-width="0.00149318" stroke-miterlimit="10"/>
<path d="M187.486 264.33C190.26 263.708 193.031 263.084 195.8 262.464" stroke="#0C0A0B" stroke-width="0.00149318" stroke-miterlimit="10"/>
<path d="M92.5476 268.378C89.774 267.756 87.003 267.132 84.2339 266.512" stroke="#0C0A0B" stroke-width="0.00149318" stroke-miterlimit="10"/>
<path d="M185.568 127.405L205.892 100.87" stroke="#0C0A0B" stroke-width="0.00149318" stroke-miterlimit="10"/>
<path d="M76.7592 107.617L103.929 120.374" stroke="#0C0A0B" stroke-width="0.00149318" stroke-miterlimit="10"/>
<path d="M472.716 200.39L477.535 382.633L443.831 382.286L423.025 206.335L472.716 200.39Z" fill="#EFBAB2"/>
<path d="M439.713 382.832C439.713 382.832 427.692 395.421 419.157 396.732C407.59 398.507 404.66 405.899 404.228 408.522H481.957L477.534 382.832H455.651C455.651 382.832 457.453 374.077 457.323 372.984C457.193 371.893 440.608 372.715 439.116 373.151C437.626 373.587 439.713 382.832 439.713 382.832Z" fill="#FFC861"/>
<path d="M404.224 408.539H481.953L481.674 411.994H403.943L404.224 408.539Z" fill="#241D15"/>
<path d="M405.883 404.491H481.835" stroke="#241D15" stroke-width="0.5" stroke-miterlimit="10"/>
<path d="M419.156 396.732C419.156 396.732 425.379 398.989 426.641 408.522" stroke="#241D15" stroke-width="0.5" stroke-miterlimit="10"/>
<path d="M431.88 388.072C435.425 387.533 439.045 388.989 441.036 391.755" stroke="#241D15" stroke-width="0.5" stroke-miterlimit="10"/>
<path d="M428.707 390.322C431.733 390.337 434.638 391.541 436.67 393.621" stroke="#241D15" stroke-width="0.5" stroke-miterlimit="10"/>
<path d="M425.418 392.685C427.919 393.111 430.142 394.59 431.444 396.698" stroke="#241D15" stroke-width="0.5" stroke-miterlimit="10"/>
<path d="M454.499 297.887C449.915 299.371 445.211 300.22 440.578 300.404" stroke="#0C0A0B" stroke-width="0.00149318" stroke-miterlimit="10"/>
<path d="M421.987 202.414L396.189 382.657L362.532 382.31L371.469 208.361L421.987 202.414Z" fill="#EFBAB2"/>
<path d="M358.371 382.832C358.371 382.832 344.597 395.421 335.878 396.732C324.063 398.507 320.104 405.899 319.308 408.522H397.04L396.192 382.832H374.309C374.309 382.832 377.33 374.077 377.353 372.984C377.374 371.893 360.674 372.715 359.122 373.151C357.57 373.587 358.371 382.832 358.371 382.832Z" fill="#FFC861"/>
<path d="M319.311 408.539H397.042L396.279 411.994H318.55L319.311 408.539Z" fill="#241D15"/>
<path d="M321.533 404.491H397.485" stroke="#241D15" stroke-width="0.5" stroke-miterlimit="10"/>
<path d="M335.881 396.732C335.881 396.732 341.788 398.989 341.726 408.522" stroke="#241D15" stroke-width="0.5" stroke-miterlimit="10"/>
<path d="M349.797 388.072C353.415 387.533 356.834 388.989 358.44 391.755" stroke="#241D15" stroke-width="0.5" stroke-miterlimit="10"/>
<path d="M346.297 390.322C349.32 390.337 352.06 391.541 353.801 393.621" stroke="#241D15" stroke-width="0.5" stroke-miterlimit="10"/>
<path d="M342.66 392.685C345.103 393.111 347.118 394.59 348.128 396.698" stroke="#241D15" stroke-width="0.5" stroke-miterlimit="10"/>
<path d="M384.972 297.887C380.184 299.371 375.363 300.22 370.703 300.404" stroke="#0C0A0B" stroke-width="0.00149318" stroke-miterlimit="10"/>
<path d="M496.158 72.7388L551.629 69.4961L552.787 93.3902L496.158 101.082V72.7388Z" fill="#EFBAB2"/>
<path d="M435.814 69.1582L500.004 69.3006L501.331 104.698H465.877L470.101 158.741H386.43L396.726 110.281L384.293 126.004L361.141 103.036C361.141 103.036 385.349 72.3881 390.878 70.5261C396.405 68.6622 413.565 69.553 413.565 69.553L435.814 69.1582Z" fill="#3A87FF"/>
<path d="M362.816 104.581L338.508 130.469L307.174 127.134V147.354C307.174 147.354 333.805 155.529 339.527 156.348C345.251 157.164 382.258 123.869 382.258 123.869L362.816 104.581Z" fill="#EFBAB2"/>
<path d="M338.517 130.557L342.398 138.042" stroke="#0C0A0B" stroke-width="0.00149318" stroke-miterlimit="10"/>
<path d="M367.234 95.4717L390.413 118.246" stroke="#0C0A0B" stroke-width="0.00149318" stroke-miterlimit="10"/>
<path d="M456.339 104.581H465.878" stroke="#0C0A0B" stroke-width="0.00149318" stroke-miterlimit="10"/>
<path d="M405.515 42.5164C405.506 43.678 405.595 44.8228 405.779 45.9368C405.862 46.4759 405.977 47.0135 406.105 47.5423C407.292 52.4609 410.371 56.5593 415.597 57.954C421.225 59.4628 427.528 56.9228 431.727 52.4133C439.338 44.2628 444.317 27.4077 435.222 19.9015C434.201 19.0563 433.108 18.426 431.94 17.992C426.48 15.9316 419.774 18.1204 414.891 22.1954C410.02 26.2605 406.843 32.3383 405.835 38.5342C405.62 39.859 405.506 41.1917 405.515 42.5164Z" fill="#EFBAB2"/>
<path d="M411.93 38.8045C411.797 39.4597 411.163 39.9205 410.512 39.8297C409.863 39.741 409.444 39.1373 409.576 38.4821C409.71 37.825 410.343 37.3682 410.994 37.4574C411.643 37.5462 412.062 38.1493 411.93 38.8045Z" fill="#0C0A0B"/>
<path d="M419.088 39.8195C418.956 40.4747 418.321 40.9335 417.67 40.8447C417.021 40.756 416.602 40.1504 416.734 39.4952C416.868 38.84 417.5 38.3812 418.152 38.47C418.8 38.5612 419.22 39.1644 419.088 39.8195Z" fill="#0C0A0B"/>
<path d="M436.527 41.4951L435.95 70.4626C435.925 75.8089 431.728 80.4855 426.37 81.1367C420.18 81.8867 415.129 77.0076 415.7 70.8222L418.002 43.7434L436.527 41.4951Z" fill="#EFBAB2"/>
<path d="M415.951 69.0355L416.713 58.0742C416.713 58.0742 424.781 59.7006 431.735 52.29C431.735 52.29 432.169 68.0787 415.951 69.0355Z" fill="#0C0A0B"/>
<path d="M434.463 47.2871C436.056 48.6466 438.758 48.9879 440.793 48.0619C442.827 47.1364 444.449 45.0324 444.899 42.7444C445.301 40.6885 444.703 38.4606 443.172 37.3838C441.64 36.309 438.972 36.6542 437.762 38.3797L434.463 47.2871Z" fill="#EFBAB2"/>
<path d="M423.627 35.3614C423.764 35.3699 423.908 35.3183 424.02 35.2151C424.226 35.0187 424.245 34.7067 424.063 34.5143C423.156 33.5595 421.709 33.1731 420.379 33.5288C420.11 33.5987 419.934 33.8715 419.988 34.1363C420.044 34.4007 420.306 34.5599 420.573 34.4855C421.554 34.2251 422.656 34.5207 423.319 35.2191C423.402 35.3079 423.511 35.3535 423.627 35.3614Z" fill="#000302"/>
<path d="M413.26 33.5397C413.44 33.5501 413.626 33.4633 413.735 33.2957C413.89 33.0601 413.83 32.7565 413.603 32.6182C412.782 32.1157 411.745 31.9342 410.757 32.1202C410.485 32.1718 410.29 32.4302 410.325 32.7005C410.358 32.9673 410.602 33.1469 410.879 33.0933C411.629 32.953 412.421 33.0913 413.045 33.4737C413.113 33.5129 413.185 33.5357 413.26 33.5397Z" fill="#000302"/>
<path d="M418.694 46.8995C418.357 48.1603 419.62 49.495 421.514 49.8794C423.407 50.2658 425.216 49.555 425.553 48.2942C425.889 47.0319 424.627 45.6968 422.734 45.3104C420.839 44.926 419.03 45.6367 418.694 46.8995Z" fill="#D94F59"/>
<path d="M410.363 49.1094C411.734 49.7522 412.8 49.8861 413.778 49.5017C414.807 49.159 415.787 48.3178 417.074 47.5674C416.915 48.291 416.625 48.9809 416.164 49.5722C415.689 50.149 415.092 50.6842 414.294 50.9629C413.511 51.2377 412.567 51.2253 411.835 50.8369C411.091 50.4793 410.579 49.8241 410.363 49.1094Z" fill="#0C0A0B"/>
<path d="M405.515 42.5068C405.506 43.6684 405.595 44.8132 405.779 45.9272C405.862 46.4663 405.977 47.0039 406.105 47.5327C407.616 47.0287 408.68 45.9872 408.684 44.8504C408.674 43.596 407.318 42.6472 405.515 42.5068Z" fill="#D94F59"/>
<path d="M437.436 45.2435C438.868 44.6339 439.951 43.8488 440.381 42.896C440.832 41.9988 440.451 40.8828 439.224 39.8145C440.005 39.7629 440.894 40.0481 441.468 40.7861C442.086 41.4968 442.202 42.652 441.794 43.5264C440.939 45.2872 438.891 45.8615 437.436 45.2435Z" fill="#0C0A0B"/>
<path d="M414.833 42.8623C414.151 43.1455 413.345 43.1664 412.616 42.9079C412.43 42.8499 412.248 42.7775 412.076 42.6803C411.892 42.5523 411.744 42.5523 411.973 42.6183C412.459 42.6183 412.484 42.2364 412.413 42.4988C412.37 42.6247 412.345 42.7547 412.32 42.8851C412.198 43.4019 412.2 43.9495 412.26 44.5199C412.358 45.0779 412.498 45.681 412.866 46.3283C412.136 46.177 411.471 45.6274 411.118 44.9187C410.746 44.2119 410.647 43.3687 410.805 42.5647C410.855 42.3663 410.913 42.1699 410.994 41.98C411.033 41.9611 411.18 41.1368 412.041 41.1576C412.62 41.2523 412.73 41.5023 412.826 41.5519L413.159 41.8351C413.632 42.1888 414.168 42.5439 414.833 42.8623Z" fill="#0C0A0B"/>
<path d="M470.105 158.896L480.579 253.548L425.417 262.699L423.026 225.907L415.588 263.83L356.502 251.048L386.435 158.896H470.105Z" fill="#40378A"/>
<path d="M423.026 225.645C423.026 225.645 415.56 211.137 413.336 188.245" stroke="#0C0A0B" stroke-width="0.00149318" stroke-miterlimit="10"/>
<path d="M479.179 240.873L424.416 247.797" stroke="#0C0A0B" stroke-width="0.00149318" stroke-miterlimit="10"/>
<path d="M418.176 250.368L362.817 233.451" stroke="#0C0A0B" stroke-width="0.00149318" stroke-miterlimit="10"/>
<path d="M439.542 36.9437C439.542 36.9437 435.035 40.6204 432.606 39.7485C430.178 38.876 430.885 26.9104 430.885 26.9104C430.352 26.3648 421.757 28.4564 411.967 25.0941L409.084 29.246C409.084 29.246 407.286 26.9104 408.492 22.6866C408.492 22.6866 411.781 0.889994 414.284 1.11319C416.784 1.33836 416.795 6.55861 417.349 4.97146C418.155 2.65471 421.798 -0.887617 425.251 0.20355C427.725 0.984727 428.335 6.60622 428.335 6.60622C428.335 6.60622 432.433 1.04921 435.973 1.70639C438.699 2.21031 438.945 9.06532 438.945 9.06532C438.945 9.06532 446.624 2.79309 448.416 5.7814C449.96 8.36052 443.181 37.2765 443.181 37.2765C443.181 37.2765 441.375 36.2121 439.542 36.9437Z" fill="#000302"/>
<path d="M396.732 110.474L399.933 101.207" stroke="#0C0A0B" stroke-width="0.00149318" stroke-miterlimit="10"/>
<path d="M489.146 104.555L487.365 69.1582" stroke="#0C0A0B" stroke-width="0.00149318" stroke-miterlimit="10"/>
<path d="M577.116 69.2068C577.116 69.2068 593.952 68.8016 603.353 70.3307C612.756 71.8604 636.768 114.186 636.768 114.186L608.236 130.473L611.401 158.79H527.732L538.028 110.33L525.595 126.053L502.441 103.085C502.441 103.085 526.651 72.4367 532.18 70.5748C537.707 68.7108 554.866 69.6016 554.866 69.6016L577.116 69.2068Z" fill="#FFC861"/>
<path d="M506.322 106.942L468.737 141.362L471.036 168.455C471.036 168.455 519.55 128.355 523.559 124.041L506.322 106.942Z" fill="#EFBAB2"/>
<path d="M667.171 64.7725L679.511 69.6703C679.511 69.6703 651.469 149.679 632.628 154.203C620.088 157.214 612.482 128.143 612.482 128.143L633.994 115.863L667.171 64.7725Z" fill="#EFBAB2"/>
<path d="M633.998 115.713L628.433 125.792" stroke="#0C0A0B" stroke-width="0.00149318" stroke-miterlimit="10"/>
<path d="M686.628 60.0356C686.808 58.2128 689.978 47.745 688.393 47.9251C686.812 48.1026 684.299 53.0794 684.299 53.0794C684.299 53.0794 686.889 44.5792 685.159 44.1739C683.524 43.792 681.131 51.7298 681.131 51.7298C681.131 51.7298 683.227 41.074 680.859 41.508C679.681 41.7272 677.449 51.2646 677.449 51.2646C677.529 49.4418 677.791 42.064 676.237 42.802C674.684 43.5416 672.613 56.3092 672.613 56.3092C672.613 56.3092 672.11 55.5072 672.154 54.3565C672.199 53.2073 672.557 47.6086 670.757 48.7043C668.955 49.7994 665.63 54.6685 665.427 56.8588C665.293 58.318 666.399 62.9926 667.175 64.5282L679.515 69.4261C682.078 69.0789 686.074 65.6977 686.628 60.0356Z" fill="#EFBAB2"/>
<path d="M675.263 51.8056C675.263 51.8056 680.696 49.4045 685.232 54.85" stroke="#0C0A0B" stroke-width="0.00149318" stroke-miterlimit="10"/>
<path d="M565.168 201.064L582.248 382.895L615.951 382.547L611.419 206.599L565.168 201.064Z" fill="#EFBAB2"/>
<path d="M620.063 382.832C620.063 382.832 632.084 395.421 640.621 396.732C652.188 398.507 655.118 405.899 655.55 408.522H577.819L582.244 382.832H604.127C604.127 382.832 602.325 374.077 602.453 372.984C602.586 371.893 619.17 372.715 620.662 373.151C622.152 373.587 620.063 382.832 620.063 382.832Z" fill="#3A87FF"/>
<path d="M655.55 408.539H577.819L578.098 411.994H655.831L655.55 408.539Z" fill="#241D15"/>
<path d="M653.898 404.491H577.946" stroke="#241D15" stroke-width="0.5" stroke-miterlimit="10"/>
<path opacity="0.5" d="M640.631 396.732C640.631 396.732 634.409 398.989 633.146 408.522" stroke="#241D15" stroke-width="0.5" stroke-miterlimit="10"/>
<path d="M627.899 388.072C624.355 387.533 620.732 388.989 618.744 391.755" stroke="#241D15" stroke-width="0.5" stroke-miterlimit="10"/>
<path d="M631.072 390.322C628.046 390.337 625.141 391.541 623.109 393.621" stroke="#241D15" stroke-width="0.5" stroke-miterlimit="10"/>
<path d="M634.375 392.685C631.872 393.111 629.651 394.59 628.349 396.698" stroke="#241D15" stroke-width="0.5" stroke-miterlimit="10"/>
<path d="M595.796 297.887C591.212 299.371 586.511 300.22 581.878 300.404" stroke="#0C0A0B" stroke-width="0.00149318" stroke-miterlimit="10"/>
<path d="M566.713 206.125L537.485 382.706L503.833 382.359L522.345 208.003L566.713 206.125Z" fill="#EFBAB2"/>
<path d="M499.671 382.832C499.671 382.832 485.895 395.421 477.178 396.732C465.363 398.507 461.402 405.899 460.608 408.522H538.338L537.49 382.832H515.609C515.609 382.832 518.63 374.077 518.653 372.984C518.674 371.893 501.972 372.715 500.422 373.151C498.87 373.587 499.671 382.832 499.671 382.832Z" fill="#3A87FF"/>
<path d="M460.61 408.539H538.339L537.579 411.994H459.849L460.61 408.539Z" fill="#241D15"/>
<path d="M462.833 404.491H538.787" stroke="#241D15" stroke-width="0.5" stroke-miterlimit="10"/>
<path d="M477.181 396.732C477.181 396.732 483.085 398.989 483.023 408.522" stroke="#241D15" stroke-width="0.5" stroke-miterlimit="10"/>
<path d="M491.097 388.072C494.718 387.533 498.136 388.989 499.742 391.755" stroke="#241D15" stroke-width="0.5" stroke-miterlimit="10"/>
<path d="M487.597 390.322C490.62 390.337 493.359 391.541 495.101 393.621" stroke="#241D15" stroke-width="0.5" stroke-miterlimit="10"/>
<path d="M483.96 392.685C486.405 393.111 488.42 394.59 489.428 396.698" stroke="#241D15" stroke-width="0.5" stroke-miterlimit="10"/>
<path d="M526.273 297.887C521.485 299.371 516.661 300.22 512.003 300.404" stroke="#0C0A0B" stroke-width="0.00149318" stroke-miterlimit="10"/>
<path d="M563.828 225.838L545.092 360.237H499.664L528.166 159.396H610.925L621.347 360.237H573.554L564.822 225.875L563.828 225.838Z" fill="white" stroke="#1B3580"/>
<path d="M564.327 225.645C564.327 225.645 556.858 211.137 554.636 188.245" stroke="#0C0A0B" stroke-width="0.00149318" stroke-miterlimit="10"/>
<path d="M620.477 341.405L571.947 342.999" stroke="#0C0A0B" stroke-width="0.00149318" stroke-miterlimit="10"/>
<path d="M547.764 344.59L501.819 341.405" stroke="#0C0A0B" stroke-width="0.00149318" stroke-miterlimit="10"/>
<path d="M593.654 281.014C597.167 281.103 600.697 280.529 604.004 279.332" stroke="#0C0A0B" stroke-width="0.00149318" stroke-miterlimit="10"/>
<path d="M519.446 277.308C522.151 278.792 525.17 279.697 528.245 279.945" stroke="#0C0A0B" stroke-width="0.00149318" stroke-miterlimit="10"/>
<path d="M508.534 95.4717L531.713 118.246" stroke="#0C0A0B" stroke-width="0.00149318" stroke-miterlimit="10"/>
<path d="M597.639 101.207L608.236 130.617" stroke="#0C0A0B" stroke-width="0.00149318" stroke-miterlimit="10"/>
<path d="M546.814 42.5164C546.807 43.678 546.897 44.8228 547.08 45.9368C547.161 46.4759 547.279 47.0135 547.407 47.5423C548.593 52.4609 551.673 56.5593 556.897 57.954C562.526 59.4628 568.829 56.9228 573.029 52.4133C580.64 44.2628 585.618 27.4077 576.523 19.9015C575.503 19.0563 574.407 18.426 573.242 17.992C567.78 15.9316 561.076 18.1204 556.192 22.1954C551.321 26.2605 548.145 32.3383 547.136 38.5342C546.919 39.859 546.807 41.1917 546.814 42.5164Z" fill="#EFBAB2"/>
<path d="M586.323 41.0294C586.323 41.0294 589.567 35.4451 590.475 32.184C591.435 28.7349 593.484 17.4473 583.041 16.6889C583.041 16.6889 586.323 10.5342 581.042 7.97992C577.538 6.28315 556.702 2.83209 551.623 6.03764C545.147 10.127 550.849 16.3581 550.849 16.3581C550.849 16.3581 544.858 26.3706 549.626 30.76C549.626 30.76 551.754 26.6433 553.488 24.9034C553.488 24.9034 553.91 26.0298 556.876 26.933C559.839 27.8337 573.045 23.4194 573.045 23.4194C573.045 23.4194 567.938 40.4774 580.832 37.0283C580.832 37.0283 586.323 35.8791 586.323 41.0294Z" fill="#0C0A0B"/>
<path d="M553.23 38.8045C553.097 39.4597 552.463 39.9205 551.812 39.8297C551.163 39.741 550.744 39.1373 550.876 38.4821C551.01 37.825 551.643 37.3682 552.293 37.4574C552.942 37.5462 553.362 38.1493 553.23 38.8045Z" fill="#0C0A0B"/>
<path d="M560.388 39.8195C560.256 40.4747 559.621 40.9335 558.97 40.8447C558.322 40.756 557.902 40.1504 558.034 39.4952C558.168 38.84 558.801 38.3812 559.452 38.47C560.101 38.5612 560.52 39.1644 560.388 39.8195Z" fill="#0C0A0B"/>
<path d="M577.825 41.4951L577.25 70.4626C577.226 75.8089 573.027 80.4855 567.668 81.1367C561.478 81.8867 556.427 77.0076 557 70.8222L559.302 43.7434L577.825 41.4951Z" fill="#EFBAB2"/>
<path d="M557.25 69.0355L558.013 58.0742C558.013 58.0742 566.081 59.7006 573.035 52.29C573.035 52.29 573.469 68.0787 557.25 69.0355Z" fill="#0C0A0B"/>
<path d="M575.774 47.2871C577.367 48.6466 580.068 48.9879 582.104 48.0619C584.138 47.1364 585.758 45.0324 586.208 42.7444C586.611 40.6885 586.014 38.4606 584.483 37.3838C582.951 36.309 580.283 36.6542 579.072 38.3797L575.774 47.2871Z" fill="#EFBAB2"/>
<path d="M564.927 35.3614C565.063 35.3699 565.208 35.3183 565.319 35.2151C565.526 35.0187 565.544 34.7067 565.361 34.5143C564.456 33.5595 563.009 33.1731 561.678 33.5288C561.407 33.5987 561.234 33.8715 561.287 34.1363C561.343 34.4007 561.606 34.5599 561.872 34.4855C562.852 34.2251 563.955 34.5207 564.619 35.2191C564.701 35.3079 564.811 35.3535 564.927 35.3614Z" fill="#000302"/>
<path d="M554.562 33.5397C554.742 33.5501 554.928 33.4633 555.035 33.2957C555.192 33.0601 555.13 32.7565 554.905 32.6182C554.082 32.1157 553.045 31.9342 552.059 32.1202C551.786 32.1718 551.592 32.4302 551.625 32.7005C551.66 32.9673 551.904 33.1469 552.179 33.0933C552.931 32.953 553.723 33.0913 554.347 33.4737C554.413 33.5129 554.487 33.5357 554.562 33.5397Z" fill="#000302"/>
<path d="M559.993 46.8995C559.657 48.1603 560.919 49.495 562.812 49.8794C564.707 50.2658 566.516 49.555 566.852 48.2942C567.189 47.0319 565.926 45.6968 564.031 45.3104C562.138 44.926 560.33 45.6367 559.993 46.8995Z" fill="#D94F59"/>
<path d="M551.663 49.1094C553.031 49.7522 554.1 49.8861 555.075 49.5017C556.107 49.159 557.084 48.3178 558.374 47.5674C558.212 48.291 557.925 48.9809 557.465 49.5722C556.989 50.149 556.392 50.6842 555.592 50.9629C554.811 51.2377 553.867 51.2253 553.133 50.8369C552.391 50.4793 551.878 49.8241 551.663 49.1094Z" fill="#0C0A0B"/>
<path d="M546.814 42.5068C546.807 43.6684 546.897 44.8132 547.08 45.9272C547.161 46.4663 547.279 47.0039 547.407 47.5327C548.918 47.0287 549.98 45.9872 549.986 44.8504C549.974 43.596 548.62 42.6472 546.814 42.5068Z" fill="#D94F59"/>
<path d="M578.736 45.2435C580.168 44.6339 581.251 43.8488 581.681 42.896C582.132 41.9988 581.751 40.8828 580.522 39.8145C581.305 39.7629 582.194 40.0481 582.768 40.7861C583.386 41.4968 583.501 42.652 583.094 43.5264C582.239 45.2872 580.191 45.8615 578.736 45.2435Z" fill="#0C0A0B"/>
<path d="M556.134 42.8623C555.45 43.1455 554.644 43.1664 553.917 42.9079C553.731 42.8499 553.547 42.7775 553.378 42.6803C553.194 42.5523 553.045 42.5523 553.274 42.6183C553.76 42.6183 553.785 42.2364 553.712 42.4988C553.671 42.6247 553.646 42.7547 553.619 42.8851C553.497 43.4019 553.5 43.9495 553.562 44.5199C553.658 45.0779 553.799 45.681 554.165 46.3283C553.435 46.177 552.772 45.6274 552.418 44.9187C552.046 44.2119 551.947 43.3687 552.104 42.5647C552.156 42.3663 552.212 42.1699 552.292 41.98C552.334 41.9611 552.478 41.1368 553.342 41.1576C553.919 41.2523 554.03 41.5023 554.125 41.5519L554.46 41.8351C554.933 42.1888 555.469 42.5439 556.134 42.8623Z" fill="#0C0A0B"/>
<path d="M538.032 110.474L541.231 101.207" stroke="#0C0A0B" stroke-width="0.00149318" stroke-miterlimit="10"/>
<path d="M631.982 105.93L604.418 119.73" stroke="#0C0A0B" stroke-width="0.00149318" stroke-miterlimit="10"/>
<path d="M565.889 81.3027L565.168 87.0125" stroke="#0C0A0B" stroke-width="0.00149318" stroke-miterlimit="10"/>
<path d="M491.656 129.545C494.367 131.762 496.617 134.536 498.236 137.642" stroke="#0C0A0B" stroke-width="0.00149318" stroke-miterlimit="10"/>
</svg>
