<svg xmlns="http://www.w3.org/2000/svg" fill="none" viewBox="0 0 589 315"><path fill="#3A87FF" d="M310.16 281.06h55.101v-19.001H310.16v19.001zm56.051.95H309.21v-20.901h57.001v20.901z"/><path fill="#3A87FF" d="M366.21 281.06h55.101v-19.001H366.21v19.001zm56.051.95H365.26v-20.901h57.001v20.901zM189.519 234.613h55.101v-19h-55.101v19zm56.051.95h-57.001v-20.9h57.001v20.9z"/><path fill="#fff" stroke="#3A87FF" d="m46.068 114.13.147.443-.147-.443c-17.036 5.652-35.428-3.578-41.08-20.614-5.65-17.037 3.578-35.429 20.614-41.08 17.036-5.652 35.428 3.577 41.08 20.614 5.65 17.036-3.578 35.429-20.614 41.08z"/><path fill="#3A87FF" d="m36.227 84.152-21.68-5.111.326-1.387 20.572 4.85 5.191-10.66 1.281.625-5.69 11.683zM146.741 54.516l-13.93 4-1.668-5.809 13.931-3.999 1.667 5.808zM130.73 9.822c-1.385 0-2.793.191-4.189.592-8.059 2.314-12.733 10.753-10.419 18.811a15.171 15.171 0 0 0 11.582 10.704l.282.058 2.335 8.133 13.017-3.737-2.335-8.133.209-.199a15.17 15.17 0 0 0 4.14-15.217c-1.913-6.662-8.012-11.012-14.622-11.012zm-1.061 39.474-2.438-8.497a16.116 16.116 0 0 1-12.022-11.311c-2.458-8.563 2.508-17.529 11.07-19.987 8.563-2.46 17.528 2.509 19.986 11.07 1.639 5.711.033 11.801-4.191 15.967l2.439 8.497-14.844 4.26z"/><path fill="#3A87FF" d="M120.666 27.446c-1.346-3.732-.668-6.938 2.017-9.529l.66.684c-2.425 2.34-3.008 5.127-1.783 8.521l-.894.324zM202.706 63.243c-5.118 0-9.284 4.164-9.284 9.282v22.096a9.24 9.24 0 0 0 7.16 9.03l.44.103v14.404l12.471-14.254h39.174c5.118 0 9.284-4.164 9.284-9.283V72.525c0-5.118-4.166-9.282-9.284-9.282h-49.961zm-2.824 57.949v-16.544a10.369 10.369 0 0 1-7.6-10.027V72.526c0-5.747 4.676-10.423 10.424-10.423h49.961c5.747 0 10.424 4.676 10.424 10.423V94.62c0 5.748-4.677 10.423-10.424 10.423h-38.656l-14.129 16.148z"/><path fill="#3A87FF" d="M210.239 80.29c-2.092 0-3.793 1.74-3.793 3.88 0 2.138 1.701 3.877 3.793 3.877 2.09 0 3.793-1.74 3.793-3.878s-1.703-3.878-3.793-3.878zm0 8.897c-2.721 0-4.933-2.251-4.933-5.018 0-2.768 2.212-5.019 4.933-5.019 2.72 0 4.933 2.251 4.933 5.02 0 2.766-2.213 5.017-4.933 5.017zM227.689 80.29c-2.093 0-3.793 1.74-3.793 3.88 0 2.138 1.7 3.877 3.793 3.877 2.09 0 3.793-1.74 3.793-3.878s-1.703-3.878-3.793-3.878zm0 8.897c-2.72 0-4.933-2.251-4.933-5.018 0-2.768 2.213-5.019 4.933-5.019 2.719 0 4.933 2.251 4.933 5.02 0 2.766-2.214 5.017-4.933 5.017zM245.138 80.29c-2.092 0-3.792 1.74-3.792 3.88 0 2.138 1.7 3.877 3.792 3.877 2.093 0 3.793-1.74 3.793-3.878s-1.7-3.878-3.793-3.878zm0 8.897c-2.719 0-4.932-2.251-4.932-5.018 0-2.768 2.213-5.019 4.932-5.019 2.72 0 4.933 2.251 4.933 5.02 0 2.766-2.213 5.017-4.933 5.017z"/><path fill="#EFBAB2" d="m187.926 208.164 25.921-24.64 15.628 15.443-42.843 41.595c-7.415 7.199-19.309 6.845-26.281-.781l6.618-29.416 20.957-2.201z"/><path fill="#EFBAB2" d="m187.928 208.051-18.199 13.566-2.029-23.209 17.129-3.75 3.099 13.393z"/><path fill="#3A87FF" d="m218.046 201.516-28.096-28.544 36.107-35.546 28.099 28.544-36.11 35.546z"/><path fill="#fff" d="m236.193 171.739-16.247-16.509 4.125-4.061 16.25 16.506-4.128 4.064z"/><path fill="#EFBAB2" d="M242.257 189.681c-.76.616-1.758.618-2.565.081-.561-.37-.981-.909-1.399-1.434-1.976-2.482-4.249-4.634-6.375-6.973-1.171-1.285-2.322-3.373-.912-4.9 1.725-1.865 5.349 1.235 6.629 2.332 1.867 1.606 3.631 3.627 4.769 5.819.532 1.028 1.062 2.287.822 3.472a2.814 2.814 0 0 1-.969 1.603z"/><path fill="#EFBAB2" d="M237.609 193.089c-.031.014-.047.047-.073.069-2.164 1.954-4.394-2.033-5.582-3.321-1.586-1.721-3.177-3.439-4.752-5.17-1.171-1.285-2.32-3.373-.905-4.904 1.729-1.87 5.356 1.227 6.634 2.325 1.869 1.605 5.008 3.576 6.144 5.769.653 1.263 1.268 3.8-1.466 5.232z"/><path fill="#EFBAB2" d="M233.474 197.104a2.099 2.099 0 0 1-2.501.15c-.534-.342-.928-.853-1.32-1.349-1.858-2.34-4.012-4.354-6.019-6.55-1.104-1.209-2.168-3.193-.752-4.705 1.731-1.848 5.177 1.042 6.391 2.068 1.776 1.499 4.479 1.872 5.526 3.955.492.978 1.216 2.809.95 3.959-.14.613-1.79 2.08-2.275 2.472z"/><path fill="#EFBAB2" d="M231.903 197.823c.377-.841.242-1.746-.29-2.346-.368-.416-.893-.597-1.321-.912-2.74-2.041-4.227-2.715-6.36-4.067-1.171-.745-2.971-1.275-3.978.378-1.231 2.024 1.705 4.546 2.745 5.437 1.52 1.299 3.351 2.401 5.232 2.892.882.231 1.946.399 2.843-.109.478-.271.886-.739 1.129-1.273z"/><path fill="#000" d="m180.027 217.554-.808-.808 9.738-9.737.807.807-9.737 9.738zM229.115 199.969c-1.644-.195-7.971-4.154-9.664-6.572l.933-.653c1.561 2.226 7.664 5.952 8.864 6.094l-.133 1.131z"/><path fill="#40378A" d="M188.479 314.45H82.04l4.531-43.141 1.996-19.029 63.707-2.755 21.708-.941 14.497 65.866z"/><path fill="#FBFBFB" d="m186.031 303.337-.148-.673.148.673zM84.747 288.623l.058-.551-.058.551z"/><path fill="#FFBDC6" d="M178.624 304.03c-.518 0-1.045-.009-1.582-.031-11.113-.429-21.723-4.448-31.983-8.336-5.737-2.173-11.668-4.42-17.632-6.021a91.498 91.498 0 0 0-23.717-3.12c-6.358 0-12.718.66-18.957 1.978l.058-.551.02-.19a92.39 92.39 0 0 1 18.886-1.947 92.195 92.195 0 0 1 23.894 3.142c5.999 1.61 11.947 3.864 17.7 6.044 10.207 3.867 20.762 7.864 31.759 8.289a41.27 41.27 0 0 0 1.596.033c2.637 0 5.04-.268 7.223-.779l.147.672.005.019c-2.245.523-4.712.798-7.417.798z"/><path fill="#FBFBFB" d="m180.475 278.012-.035-.152.035.152zm-4.902-22.266-.083-.378.083.378z"/><path fill="#FFBDC6" d="M171.093 279.422c-.699 0-1.394-.024-2.093-.086-4.924-.42-10.452-3.144-11.698-8.284-1.051-4.332 1.512-8.666 4.518-11.039 3.29-2.598 7.406-3.731 11.363-4.569.745-.159 1.494-.281 2.239-.423l.069.318.083.378c-.748.142-1.496.266-2.244.425-3.871.819-7.893 1.924-11.069 4.432-2.827 2.23-5.243 6.284-4.267 10.31 1.156 4.771 6.548 7.358 11.068 7.742.672.057 1.347.083 2.024.083 2.351 0 4.716-.301 7.023-.596.767-.097 1.548-.194 2.332-.282l.035.152.119.546c-.805.09-1.608.19-2.399.292-2.325.297-4.714.601-7.103.601z"/><path fill="#40378A" d="m86.568 271.238 1.995-19.029 63.708-2.755-65.703 21.784z"/><path fill="#000" d="m135.889 277.635-2.941-26.84 1.133-.124 2.941 26.84-1.133.124z"/><path fill="#FFC861" d="m169.731 221.727 4.246 26.827-85.407 3.684-9.917-80.457 12.696-23.838 36.467-4.776 38.529 7.721a13.777 13.777 0 0 1 10.722 10.412l7.764 33.467-17.128 3.751 2.028 23.209z"/><path fill="#000" d="m167.133 198.467-2.14-24.41 1.136-.1 2.141 24.411-1.137.099zM116.075 251.237l-.044-1.14 57.924-2.208.042 1.14-57.922 2.208z"/><path fill="#FFC861" d="m83.414 187.209 7.931-39.345-8.041 1.048a34.34 34.34 0 0 0-22.414 12.675L41.167 186.39l23.85 18.915 18.397-18.096z"/><path fill="#EFBAB2" d="m98.162 251.557-10.193.275 11.583-5.515s5.371 6.475 7.434 5.924c2.074-.554-.552-7.028-4.82-12.135l-5.251-3.287a4.084 4.084 0 0 0-4.1-.135l-17.95 9.633-25.094-25.924 15.247-14.996-23.851-18.915-17.03 21.413c-5.582 6.72-5.725 16.436-.342 23.31 12.189 15.585 25.303 29.066 45.004 36.07 2.294.815 4.809.805 7.114 0 2.957-1.047 7.148-2.46 9.707-3.033 0 0 6.166 1.378 8.968 2.204 5.074 1.513 1.92-3.175-3.453-7.037l5.107-1.368s8.273 5.097 10.612 4.679c2.338-.409-2.626-7.028-8.692-11.163z"/><path fill="#000" d="m106.038 246.272-2.796-3.634a4.212 4.212 0 0 0-4.463-1.498l-11.446 3.14-.292-1.064 11.447-3.138a5.303 5.303 0 0 1 5.628 1.888l2.796 3.636-.874.67zM95.9 264.249l-4.058-3.507a3.992 3.992 0 0 0-2.165-.953l-7.702-.89.126-1.095 7.702.888a5.1 5.1 0 0 1 2.76 1.216l4.059 3.506-.722.835zM49.643 220.967l-9.406-2.238.264-1.109 9.406 2.237-.264 1.11zM105.218 259.056l-6.04-5.793a4.088 4.088 0 0 0-2.941-1.137l-8.253.223-.03-1.102 8.253-.223c1.379-.057 2.74.489 3.736 1.444l6.038 5.792-.763.796zM73.858 196.411l-.793-.817 15.675-15.2.793.817-15.675 15.2zM136.333 115.59c10.128.64 14.418-5.324 13.475-11.288-1.015-6.42-8.095-12.839-20.486-11.022 0 0-4.895-8.817-18.485-2.39-12.063 5.706-22.758 40.941-22.758 40.941l25.815 5.099 22.439-21.34z"/><path fill="#EFBAB2" d="M132.914 122.814v24.277c0 5.761-4.663 10.433-10.424 10.433-5.761 0-10.433-4.672-10.433-10.433v-24.277h20.857z"/><path fill="#000" d="M132.915 133.926v9.602c-7.452-1.778-12.563-7.462-16.672-14.799l16.672 5.197z"/><path fill="#000" d="M134.778 113.247c7.271 4.4 14.35 16.761 13.394 26.901l-18.926-2.777 5.532-24.124z"/><path fill="#EFBAB2" d="M140.751 124.795c-.223 3.851-1.103 7.126-3.284 8.352-9.01 5.069-23.657-4.485-23.657-4.485l-1.768-11.33-1.86-13.018 12.145-4.97c6.106-1.638 10.911-.412 14.416 3.357 1.951 2.115 2.42 4.485 2.864 7.324.362 2.328.847 5.628 1.069 9.018.132 1.942.173 3.909.075 5.752z"/><path fill="#000" d="M114.604 119.546c1.035-11.146 13.535-17.197 22.452-16.879-6.369-7.165-13.094-6.26-18.312-7.165l-14.172 8.758 10.032 15.286z"/><path fill="#EFBAB2" d="M115.855 116.198c1.881 2.867 1.529 6.424-.787 7.944-2.316 1.519-5.719.427-7.601-2.441-1.881-2.868-1.529-6.424.787-7.944 2.316-1.519 5.719-.427 7.601 2.441z"/><path fill="#000" d="M112.425 119.994c-.389-1.789-1.377-2.751-3.107-3.026l.149-.938c2.109.335 3.416 1.601 3.887 3.762l-.929.202zM128.562 116.659c.142.841-.308 1.619-1.005 1.736-.697.118-1.377-.469-1.519-1.31-.142-.841.308-1.619 1.005-1.737.697-.117 1.377.47 1.519 1.311zM137.469 116.102c.164.837-.266 1.626-.959 1.762-.694.136-1.39-.432-1.554-1.27-.164-.837.265-1.626.959-1.762.694-.136 1.39.432 1.554 1.27zM132.841 123.503l-.165-.935c.167-.029.345-.049.525-.07.991-.111 1.172-.223 1.14-.704-.039-.606-.577-1.315-1.008-1.885-.097-.128-.189-.25-.273-.366l.77-.557c.08.111.168.228.26.349.508.671 1.141 1.507 1.2 2.396.096 1.478-1.206 1.624-1.983 1.711-.16.018-.318.036-.466.061z"/><path fill="#F4F4F4" d="M131.269 125.017c.965 1.115 1.136 2.549.382 3.201-.755.652-2.148.277-3.113-.839-.965-1.116-1.136-2.549-.382-3.201.754-.653 2.148-.277 3.113.839z"/><path fill="#000" d="M129.224 111.257c.163.956-.553.97-2.838 1.702-1.659.532-2.972.837-3.169.224-.196-.613.989-1.541 2.648-2.073 1.659-.532 3.129-1.207 3.359.147zM134.303 111.048c-.14.926.53.948 2.678 1.686 1.559.537 2.792.849 2.969.256.176-.592-.945-1.507-2.504-2.043-1.559-.537-2.944-1.21-3.143.101z"/><path fill="#FF7975" d="M122.449 125.286a2.89 2.89 0 1 1-.001-5.779 2.89 2.89 0 0 1 .001 5.779zM140.487 124.763a2.894 2.894 0 0 1-2.897-2.888c0-1.597 1.3-2.889 2.897-2.889.066 0 .123 0 .189.009.082 1.213.129 2.437.129 3.634a40.817 40.817 0 0 1-.055 2.118c-.09.016-.173.016-.263.016z"/><path fill="#3A87FF" d="M341.606 31.582c-25.004 0-45.346 20.343-45.346 45.349 0 25.005 20.342 45.348 45.346 45.348 25.004 0 45.349-20.343 45.349-45.348 0-25.006-20.345-45.349-45.349-45.349zm0 91.837c-25.633 0-46.486-20.854-46.486-46.488s20.853-46.489 46.486-46.489c25.634 0 46.486 20.855 46.486 46.489 0 25.634-20.852 46.488-46.486 46.488z"/><path fill="#40378A" d="M332.276 97.763c0-4.283 2.992-7.352 7.196-7.352 4.363 0 7.192 3.069 7.27 7.352 0 4.2-2.907 7.351-7.27 7.351-4.282 0-7.196-3.151-7.196-7.351zm2.104-11.151-.078-2.1c-.243-4.12 1.125-8.321 4.762-12.687 2.586-3.068 4.685-5.654 4.685-8.4 0-2.83-1.854-4.688-5.894-4.85-2.665 0-5.902.971-7.999 2.425l-2.751-8.806c2.914-1.697 7.762-3.312 13.493-3.312 10.671 0 15.511 5.898 15.511 12.602 0 6.14-3.795 10.18-6.861 13.575-2.993 3.312-4.204 6.464-4.123 10.099v1.454H334.38z"/><path fill="#fff" stroke="#3A87FF" d="m555.794 30.905.06.43h7.542v6.6h-7.542l-.06.431a26.633 26.633 0 0 1-5.132 12.396l-.262.347.308.308 5.023 5.023-4.665 4.666-5.023-5.023-.308-.308-.347.262a26.656 26.656 0 0 1-12.396 5.133l-.431.06V68.77h-6.6V61.23l-.431-.06a26.645 26.645 0 0 1-12.393-5.133l-.347-.262-.308.308-5.024 5.023-4.667-4.666 5.023-5.023.308-.308-.262-.347a26.632 26.632 0 0 1-5.131-12.396l-.06-.431h-7.543v-6.6h7.543l.06-.43a26.63 26.63 0 0 1 5.131-12.396l.262-.347-.308-.308-5.023-5.023 4.667-4.666 5.024 5.023.308.308.347-.262A26.643 26.643 0 0 1 525.53 8.1l.431-.06V.5h6.6V8.041l.431.06a26.656 26.656 0 0 1 12.396 5.133l.347.262.308-.308 5.023-5.023 4.665 4.666-5.023 5.023-.308.308.262.347a26.63 26.63 0 0 1 5.132 12.396z"/><path stroke="#3A87FF" d="M545.997 34.636c0 9.245-7.495 16.74-16.74 16.74-9.245 0-16.74-7.495-16.74-16.74 0-9.246 7.495-16.741 16.74-16.741 9.245 0 16.74 7.495 16.74 16.74z"/><path fill="#fff" stroke="#3A87FF" d="m583.524 104.632.061.431h4.915v3.976h-4.915l-.061.431a17.296 17.296 0 0 1-3.328 8.038l-.262.347.307.308 3.169 3.167-2.813 2.812-3.166-3.168-.307-.307-.348.262a17.297 17.297 0 0 1-8.037 3.328l-.431.06V129.233h-3.978V124.317l-.431-.06a17.284 17.284 0 0 1-8.036-3.328l-.347-.262-.307.307-3.169 3.168-2.813-2.812 3.169-3.167.307-.308-.261-.347a17.297 17.297 0 0 1-3.329-8.038l-.06-.431H544.137v-3.976H549.053l.06-.431a17.298 17.298 0 0 1 3.329-8.038l.261-.347-.307-.308-3.169-3.167 2.813-2.812 3.169 3.168.307.307.348-.262a17.267 17.267 0 0 1 8.035-3.328l.431-.06V84.87h3.978V89.785l.431.06a17.286 17.286 0 0 1 8.037 3.328l.348.262.307-.308 3.166-3.167 2.813 2.812-3.169 3.167-.307.308.262.347a17.297 17.297 0 0 1 3.328 8.038z"/><path stroke="#3A87FF" d="M577.102 106.966c0 5.96-4.833 10.791-10.791 10.791-5.959 0-10.791-4.831-10.791-10.791 0-5.958 4.832-10.79 10.791-10.79 5.958 0 10.791 4.832 10.791 10.79z"/><path fill="#000" d="M441.758 10.553c-1.387 0-2.774.52-3.959 1.034a34.983 34.983 0 0 0-11.035 7.629c-1.641 1.686-3.436 4.059-3.792 6.61a53.582 53.582 0 0 0 18.458-6.973c1.143-.698 2.432-1.542 3.268-2.728.836-1.19 1.05-2.641.547-3.696-.516-1.08-1.803-1.815-3.278-1.872a5.687 5.687 0 0 0-.209-.004zm-.342 15.739c-.52 0-1.062.07-1.577.214-3.529.984-6.548 3.561-8.07 6.894a6.86 6.86 0 0 0-.102.224c3.082-.015 6.172-1.077 8.937-2.027 1.002-.344 4.234-1.627 3.764-3.678-.111-.482-.404-.867-.872-1.145-.534-.317-1.282-.482-2.08-.482zm-10.614 18.21c-1.439-3.048-1.684-6.604-.729-9.823-3.406-.402-7.344-2.58-8.161-6.52a7.216 7.216 0 0 1-.133-.99c-1.577.215-3.216.29-4.811-.105-2.259-.56-4.031-2.073-4.622-3.949-.983-3.124 1.27-6.146 3.334-8.132 5.52-5.309 12.723-8.9 20.285-10.112l.181 1.125c-7.334 1.176-14.324 4.66-19.675 9.809-1.833 1.762-3.847 4.401-3.037 6.968.565 1.792 2.337 2.82 3.809 3.184 1.477.366 3.04.275 4.558.058.282-2.985 2.303-5.699 4.144-7.594a36.174 36.174 0 0 1 11.4-7.88c1.361-.591 2.962-1.191 4.665-1.123 1.893.073 3.567 1.062 4.263 2.519.691 1.442.444 3.298-.644 4.844-.959 1.365-2.365 2.287-3.605 3.045a54.723 54.723 0 0 1-19.095 7.164l-.017.003c.014.31.052.622.119.933.686 3.316 4.239 5.349 7.396 5.644l.028.003c.086-.218.178-.434.276-.647 1.662-3.635 4.954-6.445 8.802-7.519 1.612-.447 3.398-.296 4.548.388.734.437 1.216 1.083 1.399 1.869.46 2.01-1.223 3.883-4.506 5.011-2.976 1.023-6.322 2.158-9.733 2.085-.964 3.016-.767 6.382.592 9.256l-1.031.487z"/><path fill="#FFC861" d="M514.738 314.346H402.96l-1.577-66.512 10.668-1.748 76.941-12.636 9.443 29.689 16.302 51.207h.001z"/><path fill="#FFC861" d="m498.438 263.174-78.23-15.443 67.567-.19a7.735 7.735 0 0 0 5.082-1.914l5.582 17.547h-.001z"/><path fill="#000" d="m459.027 315-6.546-29.81-19.515-5.059.287-1.104 20.193 5.235 6.692 30.493-1.111.245z"/><path fill="#3A87FF" d="m399.884 167.036-6.256 72.269c-.394 4.543 3.195 8.445 7.757 8.434l86.387-.243a7.765 7.765 0 0 0 7.74-7.571l.047-92.771-41.368-1.378-39.52 2.011-14.787 19.248v.001z"/><path fill="#EFBAB2" d="M489.456 220.778c-8.547 4.688-18.366 8.398-16.819 11.03 1.551 2.643 17.095-3.86 17.095-3.86s-18.794 10.545-17.371 13.236c2.361 4.468 19.577-7.445 19.577-7.445s-13.457 10.713-11.856 12.96c2.905 4.08 14.063-7.17 14.063-7.17-1.931 1.931-6.722 7.842-5.057 9.11 2.399 1.827 16.454-9.754 16.454-9.754l7.89-6.016-17.283-16.815-6.693 4.724zM357.194 154.027a12.117 12.117 0 0 0-9.208-5.531c-3.644-.299-8.028-.472-10.47.103-4.688 1.102-19.959-3.934-20.7-2.331-2.347 5.085 11.324 11.706 19.045 14.188l5.455 12.324 19.796-12.649-3.918-6.104z"/><path fill="#3A87FF" d="m540.52 171.99-43.017-35.729a19.573 19.573 0 0 0-11.492-5.359l-41.501-4.435-36.896 6.149a26.03 26.03 0 0 0-17.849 11.973l-18.883 30.781-9.771-15.218-19.796 12.65c4.377 9.885 8.752 19.77 13.129 29.658 1.399 3.159 2.928 6.349 5.09 9.068 1.795 2.263 4.173 4.23 7.046 4.869 5.128 1.138 12.493-1.489 15.531-5.793l31.763-44.998 61.591-6.966 41.326 34.676-20.641 22.832 17.283 16.815c5.065-4.36 31.224-23.782 35.043-32.536 4.287-9.821.195-21.92-7.956-28.437z"/><path fill="#000" d="M488.698 247.229c-.088-.446-.157-3.042 7.277-10.474l.779.779c-7.073 7.073-6.971 9.489-6.969 9.51l-1.087.185zM480.624 246.82l-1.088-.185c.591-3.434 3.543-5.817 8.436-9.764a293.235 293.235 0 0 0 3.762-3.073l.708.848c-1.368 1.14-2.629 2.156-3.779 3.083-4.688 3.783-7.519 6.068-8.039 9.091zM472.159 241.058c.648-1.872 2.113-3.181 3.486-4.411 1.404-1.228 2.936-2.28 4.453-3.33a86.545 86.545 0 0 1 4.693-2.928c1.594-.924 3.192-1.831 4.829-2.679l.228.368c-1.485 1.093-3.019 2.109-4.548 3.128l-4.596 3.021a71.42 71.42 0 0 0-4.47 3.142 22.208 22.208 0 0 0-2.057 1.753c-.631.625-1.239 1.294-1.612 2.081l-.406-.145z"/><path fill="#BDD7FF" d="M541.028 209.601c-3.178-5.24-4.786-11.446-4.349-17.559.442-6.232 2.997-12.263 7.016-17.042.159.181.311.369.465.554-3.878 4.65-6.341 10.495-6.771 16.538-.42 5.909 1.114 11.908 4.156 16.991a63.03 63.03 0 0 1-.517.518z"/><path fill="#FBFBFB" d="m353.906 201.087-.149-.337.149.337zm-.244-.548c-.019-.048-.041-.093-.062-.141.021.048.043.093.062.141z"/><path fill="#BDD7FF" d="M381.067 211.82a32.752 32.752 0 0 0-7.391-6.071c-5.142-3.073-11.082-4.64-17.029-4.64-.914 0-1.831.035-2.741.111l-.149-.337-.095-.211c-.019-.048-.041-.093-.062-.141a34.468 34.468 0 0 1 3.047-.133c6.076 0 12.144 1.601 17.395 4.739a33.407 33.407 0 0 1 7.512 6.16c-.154.179-.32.352-.487.523z"/><path fill="#FBFBFB" d="m504.579 141.992-.58-.48h.002l.578.48zm-27.016-12.141-.734-.078v-.001l.734.079"/><path fill="#BDD7FF" d="M494.212 144.951c-2.741 0-5.465-.595-7.923-1.859-5.049-2.599-8.443-7.765-9.455-13.32l.734.079c1.016 5.264 4.254 10.14 9.046 12.607 2.359 1.214 4.974 1.784 7.603 1.784a19.13 19.13 0 0 0 9.79-2.73l.577.48a19.879 19.879 0 0 1-10.372 2.959zM391.292 149.151c-1.375 0-2.748-.143-4.092-.41l.392-.641c1.223.226 2.467.339 3.714.339 4.755 0 9.524-1.638 13.032-4.838 3.24-2.954 5.246-7.101 5.883-11.447l.482-.081.242-.04c-.622 4.588-2.712 8.98-6.127 12.094-3.641 3.321-8.591 5.024-13.526 5.024zM453.358 176.295c-6.627-5.499-15.369-8.584-24.007-8.584-1.325 0-2.648.072-3.959.219-6.684.748-13.201 3.448-18.59 7.559l1.264-1.786c5.137-3.5 11.122-5.795 17.245-6.481a36 36 0 0 1 4.023-.223c8.812 0 17.723 3.14 24.48 8.747l-.456.549z"/><path fill="#BDD7FF" d="m399.964 182.354-.566-.434c2.413-3.14 5.363-5.888 8.667-8.137l-1.264 1.786a36.702 36.702 0 0 0-6.837 6.785zM456.274 186.271c-10.046 0-20.206-3.652-27.842-10.141l.463-.544c7.505 6.38 17.495 9.973 27.37 9.973 1.366 0 2.727-.069 4.08-.207 10.99-1.128 21.613-6.937 28.512-15.57l.547.458c-7.019 8.773-17.815 14.675-28.987 15.82-1.373.14-2.758.211-4.143.211z"/><path fill="#BDD7FF" d="m489.4 170.27-.547-.459c.102-.125.2-.251.3-.377l.562.437-.315.399z"/><path fill="#000" d="m376.193 184.451-5.79-8.826.955-.625 5.79 8.826-.955.625zM398.748 191.848l-1.138-.078 1.705-24.771 1.138.078-1.705 24.771zM497.422 177.012l-13.537-11.4.736-.874 13.537 11.4-.736.874zM445.596 150.945c-.226 0-.456-.003-.684-.012-5.629-.195-10.619-2.729-13.023-6.612l.969-.6c2.207 3.563 6.84 5.89 12.092 6.073 5.607.199 10.5-2.03 13.433-6.106l.926.666c-2.993 4.158-8.082 6.591-13.713 6.591zM516.877 193.871l-.175-1.126 11.084-1.741.176 1.126-11.085 1.741z"/><path fill="#EFBAB2" d="m456.724 107.332-.012 22.528c0 6.572-5.325 11.908-11.896 11.908h-.273c-6.574 0-11.909-5.336-11.909-11.908v-22.528h24.09z"/><path fill="#000" d="M451.44 116.098c-5.002 7.121-12.061 11.279-18.806 12.152v-12.121l12.548-3.753 6.258 3.722z"/><path fill="#EFBAB2" d="m458.105 87.327-1.973 13.828-3.294 15.139s-18.433 7.574-23.701 1.643c-1.301-1.459-2.078-3.958-2.506-6.875-.322-2.114-.453-4.464-.472-6.805-.078-7.487 1.005-14.956 1.005-14.956l30.941-1.974z"/><path fill="#000" d="M455.323 101.694c.242-6.47-2.848-10.723-8.622-13.186-15.81 9.297-25.925 7.837-29.032-6.846 0 0 8.113 1.014 16.734-5.199 8.622-6.212 13.692-6.212 20.16 1.903 11.663 3.169 13.566 13.185 5.704 23.074l-4.944.254z"/><path fill="#EFBAB2" d="M459.514 106.926c-2.938 2.341-6.826 2.348-8.684.016-1.857-2.332-.983-6.12 1.955-8.461 2.938-2.34 6.826-2.348 8.683-.016 1.86 2.332.983 6.12-1.954 8.461z"/><path fill="#000" d="M438.198 100.047c-.049.822.459 1.523 1.14 1.566.682.042 1.276-.59 1.328-1.412.05-.822-.461-1.522-1.14-1.565-.682-.043-1.275.589-1.328 1.411zM429.369 101.057c-.072.82.42 1.534 1.099 1.595.68.061 1.29-.555 1.364-1.376.073-.82-.418-1.534-1.1-1.595-.679-.06-1.29.556-1.363 1.376zM434.78 107.535c-.145-.01-.3-.011-.456-.012-.746-.005-1.998-.015-2.052-1.421-.034-.855.489-1.719.909-2.414l.214-.358.755.436-.221.374c-.361.594-.807 1.334-.786 1.927.022.483.209.575 1.188.583.175.001.349.003.51.014l-.061.871zM437.158 96.913c.33.877.934.54 3.197.043 1.641-.361 2.886-.744 2.75-1.35-.133-.607-1.572-.807-3.213-.446-1.644.361-3.197.512-2.734 1.753zM432.879 97.624c-.214.879-.819.653-3.009.528-1.589-.091-2.805-.263-2.746-.857.06-.594 1.395-1.001 2.983-.91 1.589.09 3.074-.004 2.772 1.24z"/><path fill="#FF7975" d="M445.932 108.429a3.417 3.417 0 0 1-3.396-3.062 3.418 3.418 0 1 1 6.8-.714 3.418 3.418 0 0 1-3.404 3.776zM426.659 111.19a.073.073 0 0 1-.027-.004c-.322-2.114-.453-4.464-.472-6.805a3.408 3.408 0 0 1 3.6 3.048 3.427 3.427 0 0 1-3.049 3.757c-.017 0-.036.004-.052.004z"/><path fill="#000" d="M434.796 113.105c-.311-1.083-.185-1.999.368-2.723 1.095-1.423 3.539-1.694 5.408-1.656l-.014.873c-2.354-.044-4.021.429-4.7 1.315-.383.499-.456 1.137-.224 1.95l-.838.241zM455.273 104.555c-.242-2.81.976-4.51 3.624-5.052l.176.857c-2.233.456-3.135 1.727-2.929 4.12l-.871.075zM588.992 313.818H0v1.14h588.992v-1.14z"/></svg>