<svg xmlns="http://www.w3.org/2000/svg" xmlns:xlink="http://www.w3.org/1999/xlink" fill="none" viewBox="0 0 50 50"><path fill="#fff" d="M44.466 40.736a2.86 2.86 0 0 0-.127.153l.127-.154z"/><path fill="url(#a)" d="M25 0C11.193 0 0 11.193 0 25s11.193 25 25 25 25-11.193 25-25S38.807 0 25 0z"/><path fill="#fff" d="M30.058 14.113c.15-.01.282.15.346.431.064.285.064.542-.112.596-.243.079-.574-.147-.63-.397-.07-.304.132-.613.396-.63zm6.207 30.31a11.271 11.271 0 0 1-10.998-8.816 9.516 9.516 0 0 1-.106-1.432c0-2.474.912-4.48 2.038-4.48.527 0 1.01.444 1.373 1.172-.002-.086-.002-.172-.002-.258 0-3.119 1.51-5.885 3.843-7.602l.961-.74h.003l4.839-3.725a.971.971 0 0 0 .369-.61 22.26 22.26 0 0 0 .266-4.294.86.86 0 0 0-.932-.818c-2 .154-4.051.445-6.137.873l-.017-.006-2.558-1.018a3.352 3.352 0 0 0-2.01-.147c-1.87.44-3.758.99-5.653 1.652a3.958 3.958 0 0 0-1.462-1.013c-1.599-.65-3.286-.223-3.766.954-.26.64-.11 1.373.34 2.01a58.38 58.38 0 0 0-.978.452C9.535 19.483 4.25 23.227.113 27.37c.13 1.393.375 2.754.726 4.07C3.679 42.127 13.419 50 24.999 50c7.38 0 14.01-3.195 18.587-8.279a11.215 11.215 0 0 1-7.32 2.703"/><path fill="url(#b)" d="m38.216 18.542-4.84 3.724h-.002l-.961.741a9.418 9.418 0 0 0-3.84 7.86c-.364-.728-.847-1.172-1.374-1.172-1.126 0-2.038 2.006-2.038 4.48 0 .5.037.983.106 1.432.166.753.41 1.479.718 2.168a11.271 11.271 0 0 0 10.28 6.648c2.79 0 5.343-1.013 7.308-2.692a25.025 25.025 0 0 0 4.402-6.861c.005-.013.008-.026.014-.038-3.226 4.813-12.278 4.928-15.128-1.83-.972-2.308-.96-4.97.096-7.24 1.864-4.006 5.271-6.663 5.503-7.493a.995.995 0 0 1-.244.273z"/><path fill="url(#c)" d="M34.099 19.713c-6.377 2.982-7.662 6.39-7.662 6.39-.493-.665-.707-1.522-.579-2.141 0 0-11.08 9.808-12.625 21.95-.025.194-.048.591-.07 1.11A24.883 24.883 0 0 0 25 50c7.38 0 14.01-3.195 18.587-8.279a11.214 11.214 0 0 1-7.32 2.703 11.271 11.271 0 0 1-11-8.817 9.516 9.516 0 0 1-.105-1.432c0-2.474.912-4.48 2.038-4.48.527 0 1.01.444 1.373 1.172-.002-.086-.002-.172-.002-.258 0-3.119 1.51-5.885 3.843-7.602l.961-.74h.002l4.84-3.725a.972.972 0 0 0 .369-.61c.058-.354.108-.72.15-1.092-.192.611-.877 1.115-4.636 2.873z"/><path fill="url(#d)" d="M0 0H.011V.011H0z"/><path fill="#fff" d="M30.292 15.14c-.243.078-.574-.148-.63-.398-.069-.304.132-.613.397-.63.15-.01.282.15.346.432.064.284.064.542-.113.596z"/><path fill="#377FEB" d="M30.292 15.14c-.243.078-.574-.148-.63-.398-.069-.304.132-.613.397-.63.15-.01.282.15.346.432.064.284.064.542-.113.596z"/><defs><pattern id="d" width="1" height="1" patternContentUnits="objectBoundingBox"><use transform="scale(.00052 .00038)" xlink:href="#e"/></pattern><linearGradient id="a" x1="19.049" x2="35.317" y1="38.093" y2="2.302" gradientUnits="userSpaceOnUse"><stop stop-color="#377FEB"/><stop offset="1" stop-color="#377FEB"/></linearGradient><linearGradient id="b" x1="39.641" x2="33.993" y1="20.943" y2="44.917" gradientUnits="userSpaceOnUse"><stop stop-color="#377FEB"/><stop offset="1" stop-color="#377FEB"/></linearGradient><linearGradient id="c" x1="21.506" x2="29.715" y1="12.322" y2="48.558" gradientUnits="userSpaceOnUse"><stop stop-color="#377FEB"/><stop offset="1" stop-color="#fff"/></linearGradient></defs></svg>