<svg xmlns="http://www.w3.org/2000/svg" fill="none" viewBox="0 0 118 91"><path fill="#FFC861" d="M116.674 28.02c-.245-.391-.551-.793-.725-1.216-.088-.214-.254-.52-.312-.729-.074-.267.012-.434-.145-.718.448-.327.26-1.573.112-2.222-.175-.765-.462-.828-.978-1.24-.302-.243-.586-.556-.883-.815-.305-.267-.604-.446-.838-.796a6.905 6.905 0 0 1-.721-1.348c-.145-.372-.452-.646-.491-1.017-.039-.373.143-.572.171-.885.039-.407-.3-.83-.401-1.249-.192-.79-.893-1.673-1.357-2.417-.26-.416-.511-.91-.828-1.271a17.177 17.177 0 0 0-.862-.9c-.278-.274-.646-.35-.965-.506-.378-.186-.476-.402-.729-.807-.108-.174-.322-.424-.389-.613-.065-.187-.002-.275-.008-.448-.015-.45-.328-1.12-.489-1.576-.263-.744-.786-1.716-1.296-2.336-.308-.373-.776-.59-1.138-.777-.304-.155-.358-.147-.626-.462a26.3 26.3 0 0 1-1.264-1.627A49.55 49.55 0 0 1 100.297.27L.557 62.454c.014.027.03.053.042.079.374.752.883 1.552 1.358 2.243.385.562.685.728 1.192.979.563.277.855.838 1.207 1.403.412.66.679 1.16.91 1.89.124.39.107.544.113.9.004.306.06.634.1.947.07.55.271.862.49 1.392.525 1.277 1.732 2.062 2.596 3.019.237.262.342.28.408.636.066.359.001.687-.017 1.02-.036.652.332 1.252.72 1.875.409.656.713 1.22 1.31 1.674.52.395 1.172.689 1.643 1.176.347.36.658.944.748 1.387.097.48.026 1.377.726 1.411.526.026.733-.26 1.262.342.458.523 1.004 1.45 1.037 2.074.012.236.02.488.082.735.06.233-.019.119.144.364.093.142.347.327.475.441a10.605 10.605 0 0 1 1.545 1.694l98.461-61.388c-.148-.244-.291-.495-.435-.727z"/></svg>